<?xml version="1.0" encoding="UTF-8" standalone="no"?>
<!-- Created with Inkscape (http://www.inkscape.org/) -->

<svg
   xmlns:dc="http://purl.org/dc/elements/1.1/"
   xmlns:cc="http://creativecommons.org/ns#"
   xmlns:rdf="http://www.w3.org/1999/02/22-rdf-syntax-ns#"
   xmlns:svg="http://www.w3.org/2000/svg"
   xmlns="http://www.w3.org/2000/svg"
   xmlns:xlink="http://www.w3.org/1999/xlink"
   xmlns:sodipodi="http://sodipodi.sourceforge.net/DTD/sodipodi-0.dtd"
   xmlns:inkscape="http://www.inkscape.org/namespaces/inkscape"
   width="50"
   height="70"
   id="svg2"
   version="1.1"
   inkscape:version="0.47 "
   sodipodi:docname="6.svg">
  <defs
     id="defs4">
    <linearGradient
       id="linearGradient4774">
      <stop
         id="stop4776"
         offset="0"
         style="stop-color:#da3621;stop-opacity:1;" />
      <stop
         id="stop4778"
         offset="1"
         style="stop-color:#000000;stop-opacity:0.50980395;" />
    </linearGradient>
    <g
       style="fill:#ffffff;fill-opacity:1;stroke:none"
       id="lys"
       transform="matrix(0.4,0,0,0.4,236.59,667.12)">
      <path
         id="lys_1"
         style="fill:#ffffff;fill-opacity:1;fill-rule:evenodd;stroke:none"
         transform="translate(-1.35,-0.76)"
         d="m 355.65,280.19 c 0,0 -3.75,-8.1 -8.1,-12.6 -4.36,-4.51 -9.68,-7.58 -11.04,-6.53" />
      <path
         id="lys_2"
         style="fill:#ffffff;fill-opacity:1;fill-rule:evenodd;stroke:none"
         d="m 368.97,258.94 c -2.29,0.08 -5.9,1.92 -7.85,3.87 -2.59,2.6 -3.52,7.58 -3.59,9.44 -0.07,1.86 -1.32,-0.84 -2.19,-2.37 -0.86,-1.54 -1.93,-5.4 -2.22,-3.22 -0.28,2.2 -0.34,3.26 0.07,5.72 0.4,2.45 1.59,7.15 2.56,8.68 l 3.97,3.94 c 1.87,-1.88 3.1,-6.25 3.19,-6.25 l -0.07,9.34 4.35,4.32 c -1.16,-2.37 -1.94,-6.58 -1.63,-10.38 0.32,-3.8 2.3,-8.59 2.06,-10.44 -1.14,-0.4 -2.9,2.58 -5.21,1.88 -0.08,-1.75 0.74,-6.02 1.9,-7.69 1.17,-1.66 4.43,-5.7 6.41,-6.28 -0.36,-0.42 -0.99,-0.59 -1.75,-0.56 z" />
      <path
         id="lys_3"
         style="fill:#ffffff;fill-opacity:1;fill-rule:evenodd;stroke:none"
         transform="translate(-1.35,-0.76)"
         d="m 329.36,254.28 c 9.62,-4.95 19.64,8.3 19.64,8.3 0,0 1.44,-9.25 3.32,-9.36 1.88,-0.11 4.87,7.31 4.87,7.31 0,0 5.76,-7.64 15.72,-7.58 9.97,0.05 11.57,9.13 5.87,9.57 -5.66,0.44 -2.38,-5.15 -2.27,-3.65 0.06,0.17 -5.37,-7.75 -19.15,7.86 -2.03,2.3 -3.94,-8.46 -4.93,-6.09 -1.21,2.88 -0.22,6.26 -1.11,8.53 1.39,1.71 -11.35,-13.84 -16.77,-9.58" />
      <use
         height="1216.1899"
         width="2178.99"
         y="0"
         x="0"
         id="use646"
         style="fill:#ffffff;fill-opacity:1;stroke:none"
         xlink:href="#lys_3"
         transform="matrix(0,1,1,0,74.5,-74.49)" />
      <use
         height="1216.1899"
         width="2178.99"
         y="0"
         x="0"
         id="use648"
         style="fill:#ffffff;fill-opacity:1;stroke:none"
         xlink:href="#lys_1"
         transform="matrix(0,1,1,0,74.9,-74.93)" />
      <use
         height="1216.1899"
         width="2178.99"
         y="0"
         x="0"
         id="use650"
         style="fill:#ffffff;fill-opacity:1;stroke:none"
         xlink:href="#lys_2"
         transform="matrix(0,1,1,0,74.82,-74.82)" />
    </g>
    <g
       transform="matrix(0.4,0,0,0.4,236.59,667.12)"
       id="lys-6"
       style="fill:#ffffff;fill-opacity:1;stroke:none">
      <path
         d="m 355.65,280.19 c 0,0 -3.75,-8.1 -8.1,-12.6 -4.36,-4.51 -9.68,-7.58 -11.04,-6.53"
         transform="translate(-1.35,-0.76)"
         style="fill:#ffffff;fill-opacity:1;fill-rule:evenodd;stroke:none"
         id="lys_1-8" />
      <path
         d="m 368.97,258.94 c -2.29,0.08 -5.9,1.92 -7.85,3.87 -2.59,2.6 -3.52,7.58 -3.59,9.44 -0.07,1.86 -1.32,-0.84 -2.19,-2.37 -0.86,-1.54 -1.93,-5.4 -2.22,-3.22 -0.28,2.2 -0.34,3.26 0.07,5.72 0.4,2.45 1.59,7.15 2.56,8.68 l 3.97,3.94 c 1.87,-1.88 3.1,-6.25 3.19,-6.25 l -0.07,9.34 4.35,4.32 c -1.16,-2.37 -1.94,-6.58 -1.63,-10.38 0.32,-3.8 2.3,-8.59 2.06,-10.44 -1.14,-0.4 -2.9,2.58 -5.21,1.88 -0.08,-1.75 0.74,-6.02 1.9,-7.69 1.17,-1.66 4.43,-5.7 6.41,-6.28 -0.36,-0.42 -0.99,-0.59 -1.75,-0.56 z"
         style="fill:#ffffff;fill-opacity:1;fill-rule:evenodd;stroke:none"
         id="lys_2-5" />
      <path
         d="m 329.36,254.28 c 9.62,-4.95 19.64,8.3 19.64,8.3 0,0 1.44,-9.25 3.32,-9.36 1.88,-0.11 4.87,7.31 4.87,7.31 0,0 5.76,-7.64 15.72,-7.58 9.97,0.05 11.57,9.13 5.87,9.57 -5.66,0.44 -2.38,-5.15 -2.27,-3.65 0.06,0.17 -5.37,-7.75 -19.15,7.86 -2.03,2.3 -3.94,-8.46 -4.93,-6.09 -1.21,2.88 -0.22,6.26 -1.11,8.53 1.39,1.71 -11.35,-13.84 -16.77,-9.58"
         transform="translate(-1.35,-0.76)"
         style="fill:#ffffff;fill-opacity:1;fill-rule:evenodd;stroke:none"
         id="lys_3-7" />
      <use
         transform="matrix(0,1,1,0,74.5,-74.49)"
         xlink:href="#lys_3-7"
         style="fill:#ffffff;fill-opacity:1;stroke:none"
         id="use646-6"
         x="0"
         y="0"
         width="2178.99"
         height="1216.1899" />
      <use
         transform="matrix(0,1,1,0,74.9,-74.93)"
         xlink:href="#lys_1-8"
         style="fill:#ffffff;fill-opacity:1;stroke:none"
         id="use648-1"
         x="0"
         y="0"
         width="2178.99"
         height="1216.1899" />
      <use
         transform="matrix(0,1,1,0,74.82,-74.82)"
         xlink:href="#lys_2-5"
         style="fill:#ffffff;fill-opacity:1;stroke:none"
         id="use650-8"
         x="0"
         y="0"
         width="2178.99"
         height="1216.1899" />
    </g>
    <radialGradient
       inkscape:collect="always"
       xlink:href="#linearGradient4774"
       id="radialGradient3785"
       gradientUnits="userSpaceOnUse"
       gradientTransform="matrix(3.4677513,0.02853153,-0.00586026,2.1318507,-46.913248,-10.69011)"
       cx="20.746119"
       cy="4.9713411"
       fx="20.802559"
       fy="8.2045326"
       r="24.6875" />
    <radialGradient
       inkscape:collect="always"
       xlink:href="#linearGradient4774"
       id="radialGradient3788"
       gradientUnits="userSpaceOnUse"
       gradientTransform="matrix(3.4678167,0.02490806,1.2243669e-7,2.7949367,-47.133416,-35.37228)"
       cx="20.800816"
       cy="37.336853"
       fx="20.728724"
       fy="35.280205"
       r="24.6875" />
  </defs>
  <sodipodi:namedview
     id="base"
     pagecolor="#ffffff"
     bordercolor="#666666"
     borderopacity="1.0"
     inkscape:pageopacity="0.0"
     inkscape:pageshadow="2"
     inkscape:zoom="7.9999999"
     inkscape:cx="-13.40095"
     inkscape:cy="44.189252"
     inkscape:document-units="px"
     inkscape:current-layer="layer1"
     showgrid="false"
     showguides="true"
     inkscape:guide-bbox="true"
     inkscape:window-width="1680"
     inkscape:window-height="1028"
     inkscape:window-x="-4"
     inkscape:window-y="-4"
     inkscape:window-maximized="1"
     inkscape:snap-center="true">
    <sodipodi:guide
       orientation="1,0"
       position="25,22"
       id="guide3649" />
    <inkscape:grid
       type="xygrid"
       id="grid3665" />
    <sodipodi:guide
       orientation="1,0"
       position="7,57"
       id="guide3675" />
    <sodipodi:guide
       orientation="1,0"
       position="7,40"
       id="guide4399" />
  </sodipodi:namedview>
  <metadata
     id="metadata7">
    <rdf:RDF>
      <cc:Work
         rdf:about="">
        <dc:format>image/svg+xml</dc:format>
        <dc:type
           rdf:resource="http://purl.org/dc/dcmitype/StillImage" />
        <dc:title />
      </cc:Work>
    </rdf:RDF>
  </metadata>
  <g
     inkscape:label="Ebene 1"
     inkscape:groupmode="layer"
     id="layer1"
     transform="translate(0,-982.36218)">
    <text
       xml:space="preserve"
       style="font-size:48px;font-style:normal;font-variant:normal;font-weight:normal;font-stretch:normal;text-align:start;line-height:100%;writing-mode:lr-tb;text-anchor:start;fill:#000000;fill-opacity:1;stroke:none;font-family:BigNoodleTitling;-inkscape-font-specification:BigNoodleTitling"
       x="-143.54268"
       y="40.655067"
       id="text3638"
       sodipodi:linespacing="100%"
       transform="translate(0,982.36218)"><tspan
         sodipodi:role="line"
         id="tspan3640"
         x="-143.54268"
         y="40.655067" /></text>
    <text
       xml:space="preserve"
       style="font-size:48px;font-style:normal;font-variant:normal;font-weight:normal;font-stretch:normal;text-align:start;line-height:100%;writing-mode:lr-tb;text-anchor:start;fill:#000000;fill-opacity:1;stroke:none;font-family:BigNoodleTitling;-inkscape-font-specification:BigNoodleTitling"
       x="-105.71246"
       y="89.798988"
       id="text4401"
       sodipodi:linespacing="100%"
       transform="translate(0,982.36218)"><tspan
         sodipodi:role="line"
         id="tspan4403"
         x="-105.71246"
         y="89.798988" /></text>
    <g
       transform="translate(0,982.36218)"
       style="font-size:48px;font-style:normal;font-variant:normal;font-weight:normal;font-stretch:normal;text-align:start;line-height:100%;writing-mode:lr-tb;text-anchor:start;fill:#000000;fill-opacity:1;stroke:none;font-family:BigNoodleTitling;-inkscape-font-specification:BigNoodleTitling"
       id="text4480" />
    <text
       xml:space="preserve"
       style="font-size:48px;font-style:normal;font-variant:normal;font-weight:normal;font-stretch:normal;text-align:start;line-height:100%;writing-mode:lr-tb;text-anchor:start;fill:#000000;fill-opacity:1;stroke:none;font-family:BigNoodleTitling;-inkscape-font-specification:BigNoodleTitling"
       x="-54.875"
       y="57.375"
       id="text3259"
       sodipodi:linespacing="100%"
       transform="translate(0,982.36218)"><tspan
         sodipodi:role="line"
         id="tspan3261" /></text>
    <rect
       ry="4.4895606"
       rx="4.4895864"
       y="982.74762"
       x="0.51041466"
       height="68.979172"
       width="48.979172"
       id="rect3984"
       style="fill:#ffffff;fill-opacity:1;fill-rule:evenodd;stroke:none" />
    <path
       style="fill:#ff0000;fill-opacity:1;fill-rule:evenodd;stroke:none"
       d="M 5 0.375 C 2.5127692 0.375 0.5 2.3877834 0.5 4.875 L 0.5 64.875 C 0.5 67.362217 2.5127692 69.375 5 69.375 L 45 69.375 C 47.487231 69.375 49.5 67.362217 49.5 64.875 L 49.5 4.875 C 49.5 2.3877834 47.487231 0.375 45 0.375 L 5 0.375 z M 5.84375 2 L 7.96875 2 C 10.216088 2.0000223 11.34374 3.2689802 11.34375 5.78125 L 11.34375 8.21875 L 8.40625 8.21875 L 8.40625 6.25 C 8.406243 5.1877493 7.9408593 4.6562692 7.0625 4.65625 L 6.59375 4.65625 C 5.8176155 4.6562692 5.4062455 5.0791009 5.40625 5.9375 L 5.40625 11.40625 L 8.15625 11.40625 C 10.402965 11.406263 11.53124 12.674597 11.53125 15.1875 L 11.53125 20.28125 C 11.53124 22.753021 10.402965 24 8.15625 24 L 5.84375 24 C 3.597024 24 2.4687481 22.753021 2.46875 20.28125 L 2.46875 5.78125 C 2.4687481 3.2689802 3.597024 2.0000223 5.84375 2 z M 5.40625 14.0625 L 5.40625 20.03125 C 5.4062455 20.90962 5.8603273 21.343753 6.71875 21.34375 L 7.25 21.34375 C 8.1283593 21.343753 8.5624923 20.90962 8.5625 20.03125 L 8.5625 15.65625 C 8.5624923 14.59399 8.1283593 14.06251 7.25 14.0625 L 5.40625 14.0625 z M 4.5 24.71875 C 4.9548854 24.715589 5.4019328 24.85695 5.8125 25.125 C 6.466955 25.5522 6.893863 26.3285 6.96875 27.125 L 7 27.34375 L 7.03125 27.0625 C 7.170248 25.9782 7.860195 25.14615 8.8125 24.84375 C 9.023064 24.7769 9.2589436 24.721375 9.5 24.71875 C 9.7410564 24.716125 9.9778595 24.75015 10.1875 24.8125 C 10.805727 24.9961 11.389064 25.50425 11.6875 26.09375 C 11.917117 26.54725 12.000461 26.88715 12 27.40625 C 11.999154 28.35855 11.665046 29.2933 10.90625 30.375 C 10.524981 30.9185 10.247441 31.23725 9.09375 32.53125 C 7.900098 33.87015 7.518126 34.34955 7.1875 34.96875 L 7.03125 35.28125 L 6.90625 35.03125 C 6.543682 34.36985 6.143635 33.87365 4.9375 32.53125 C 3.713583 31.16905 3.49722 30.91205 3.09375 30.34375 C 1.872898 28.62425 1.652116 26.96555 2.5 25.78125 C 2.9841369 25.105 3.7418577 24.724019 4.5 24.71875 z M 23.1875 30.78125 L 26.5 30.78125 C 30.020494 30.781285 31.781234 32.720736 31.78125 36.65625 L 31.78125 40.5 L 27.1875 40.5 L 27.1875 37.4375 C 27.187489 35.773466 26.500965 34.93753 25.125 34.9375 L 24.34375 34.9375 C 23.127922 34.93753 22.531243 35.624053 22.53125 36.96875 L 22.53125 45.5 L 26.8125 45.5 C 30.332017 45.50002 32.093734 47.469744 32.09375 51.40625 L 32.09375 59.4375 C 32.093734 63.309572 30.332017 65.21875 26.8125 65.21875 L 23.1875 65.21875 C 19.667965 65.21875 17.906247 63.309572 17.90625 59.4375 L 17.90625 36.65625 C 17.906247 32.720736 19.667965 30.781285 23.1875 30.78125 z M 22.53125 49.6875 L 22.53125 59 C 22.531243 60.375981 23.186516 61.062505 24.53125 61.0625 L 25.40625 61.0625 C 26.782215 61.062505 27.468738 60.375981 27.46875 59 L 27.46875 52.1875 C 27.468738 50.523452 26.782215 49.687515 25.40625 49.6875 L 22.53125 49.6875 z "
       transform="translate(0,982.36218)"
       id="rect3986" />
    <path
       style="fill:url(#radialGradient3788);fill-opacity:1.0;fill-rule:evenodd;stroke:none"
       d="M 41.0625 0.125 C 37.405488 0.0907875 32.254065 0.5 25 0.5 C -3.8912665 2.3125 0.1875 -7.64964 0.5 35 C 1.03033 75.0077 -5.2374605 69.5 25 69.5 C 54.437521 69.5 49.5 75.9615 49.5 35 C 49.5 4.278395 52.033537 0.2276375 41.0625 0.125 z M 5.84375 2 L 7.96875 2 C 10.216088 2.0000223 11.34374 3.2689802 11.34375 5.78125 L 11.34375 8.21875 L 8.40625 8.21875 L 8.40625 6.25 C 8.406243 5.1877493 7.9408593 4.6562692 7.0625 4.65625 L 6.59375 4.65625 C 5.8176155 4.6562692 5.4062455 5.0791009 5.40625 5.9375 L 5.40625 11.40625 L 8.15625 11.40625 C 10.402965 11.406263 11.53124 12.674597 11.53125 15.1875 L 11.53125 20.28125 C 11.53124 22.753021 10.402965 24 8.15625 24 L 5.84375 24 C 3.597024 24 2.4687481 22.753021 2.46875 20.28125 L 2.46875 5.78125 C 2.4687481 3.2689802 3.597024 2.0000223 5.84375 2 z M 5.40625 14.0625 L 5.40625 20.03125 C 5.4062455 20.90962 5.8603273 21.343753 6.71875 21.34375 L 7.25 21.34375 C 8.1283593 21.343753 8.5624923 20.90962 8.5625 20.03125 L 8.5625 15.65625 C 8.5624923 14.59399 8.1283593 14.06251 7.25 14.0625 L 5.40625 14.0625 z M 4.5 24.71875 C 4.9548854 24.715589 5.4019328 24.85695 5.8125 25.125 C 6.466955 25.5522 6.893863 26.3285 6.96875 27.125 L 7 27.34375 L 7.03125 27.0625 C 7.170248 25.9782 7.860195 25.14615 8.8125 24.84375 C 9.023064 24.7769 9.2589436 24.721375 9.5 24.71875 C 9.7410564 24.716125 9.9778595 24.75015 10.1875 24.8125 C 10.805727 24.9961 11.389064 25.50425 11.6875 26.09375 C 11.917117 26.54725 12.000461 26.88715 12 27.40625 C 11.999154 28.35855 11.665046 29.2933 10.90625 30.375 C 10.524981 30.9185 10.247441 31.23725 9.09375 32.53125 C 7.900098 33.87015 7.518126 34.34955 7.1875 34.96875 L 7.03125 35.28125 L 6.90625 35.03125 C 6.543682 34.36985 6.143635 33.87365 4.9375 32.53125 C 3.713583 31.16905 3.49722 30.91205 3.09375 30.34375 C 1.872898 28.62425 1.652116 26.96555 2.5 25.78125 C 2.9841369 25.105 3.7418577 24.724019 4.5 24.71875 z M 23.1875 30.78125 L 26.5 30.78125 C 30.020494 30.781285 31.781234 32.720736 31.78125 36.65625 L 31.78125 40.5 L 27.1875 40.5 L 27.1875 37.4375 C 27.187489 35.773466 26.500965 34.93753 25.125 34.9375 L 24.34375 34.9375 C 23.127922 34.93753 22.531243 35.624053 22.53125 36.96875 L 22.53125 45.5 L 26.8125 45.5 C 30.332017 45.50002 32.093734 47.469744 32.09375 51.40625 L 32.09375 59.4375 C 32.093734 63.309572 30.332017 65.21875 26.8125 65.21875 L 23.1875 65.21875 C 19.667965 65.21875 17.906247 63.309572 17.90625 59.4375 L 17.90625 36.65625 C 17.906247 32.720736 19.667965 30.781285 23.1875 30.78125 z M 22.53125 49.6875 L 22.53125 59 C 22.531243 60.375981 23.186516 61.062505 24.53125 61.0625 L 25.40625 61.0625 C 26.782215 61.062505 27.468738 60.375981 27.46875 59 L 27.46875 52.1875 C 27.468738 50.523452 26.782215 49.687515 25.40625 49.6875 L 22.53125 49.6875 z "
       transform="translate(0,982.36218)"
       id="path3988" />
    <path
       style="fill:url(#radialGradient3785);fill-opacity:1;fill-rule:evenodd;stroke:none"
       d="M 41.0625 0.125 C 37.405488 0.0907875 32.254065 0.5 25 0.5 C -3.8912665 2.3125 0.1875 -7.64964 0.5 35 C 1.03033 75.0077 -5.2374605 69.5 25 69.5 C 54.437521 69.5 49.5 75.9615 49.5 35 C 49.5 4.278395 52.033537 0.2276375 41.0625 0.125 z M 5.84375 2 L 7.96875 2 C 10.216088 2.0000223 11.34374 3.2689802 11.34375 5.78125 L 11.34375 8.21875 L 8.40625 8.21875 L 8.40625 6.25 C 8.406243 5.1877493 7.9408593 4.6562692 7.0625 4.65625 L 6.59375 4.65625 C 5.8176155 4.6562692 5.4062455 5.0791009 5.40625 5.9375 L 5.40625 11.40625 L 8.15625 11.40625 C 10.402965 11.406263 11.53124 12.674597 11.53125 15.1875 L 11.53125 20.28125 C 11.53124 22.753021 10.402965 24 8.15625 24 L 5.84375 24 C 3.597024 24 2.4687481 22.753021 2.46875 20.28125 L 2.46875 5.78125 C 2.4687481 3.2689802 3.597024 2.0000223 5.84375 2 z M 5.40625 14.0625 L 5.40625 20.03125 C 5.4062455 20.90962 5.8603273 21.343753 6.71875 21.34375 L 7.25 21.34375 C 8.1283593 21.343753 8.5624923 20.90962 8.5625 20.03125 L 8.5625 15.65625 C 8.5624923 14.59399 8.1283593 14.06251 7.25 14.0625 L 5.40625 14.0625 z M 4.5 24.71875 C 4.9548854 24.715589 5.4019328 24.85695 5.8125 25.125 C 6.466955 25.5522 6.893863 26.3285 6.96875 27.125 L 7 27.34375 L 7.03125 27.0625 C 7.170248 25.9782 7.860195 25.14615 8.8125 24.84375 C 9.023064 24.7769 9.2589436 24.721375 9.5 24.71875 C 9.7410564 24.716125 9.9778595 24.75015 10.1875 24.8125 C 10.805727 24.9961 11.389064 25.50425 11.6875 26.09375 C 11.917117 26.54725 12.000461 26.88715 12 27.40625 C 11.999154 28.35855 11.665046 29.2933 10.90625 30.375 C 10.524981 30.9185 10.247441 31.23725 9.09375 32.53125 C 7.900098 33.87015 7.518126 34.34955 7.1875 34.96875 L 7.03125 35.28125 L 6.90625 35.03125 C 6.543682 34.36985 6.143635 33.87365 4.9375 32.53125 C 3.713583 31.16905 3.49722 30.91205 3.09375 30.34375 C 1.872898 28.62425 1.652116 26.96555 2.5 25.78125 C 2.9841369 25.105 3.7418577 24.724019 4.5 24.71875 z M 23.1875 30.78125 L 26.5 30.78125 C 30.020494 30.781285 31.781234 32.720736 31.78125 36.65625 L 31.78125 40.5 L 27.1875 40.5 L 27.1875 37.4375 C 27.187489 35.773466 26.500965 34.93753 25.125 34.9375 L 24.34375 34.9375 C 23.127922 34.93753 22.531243 35.624053 22.53125 36.96875 L 22.53125 45.5 L 26.8125 45.5 C 30.332017 45.50002 32.093734 47.469744 32.09375 51.40625 L 32.09375 59.4375 C 32.093734 63.309572 30.332017 65.21875 26.8125 65.21875 L 23.1875 65.21875 C 19.667965 65.21875 17.906247 63.309572 17.90625 59.4375 L 17.90625 36.65625 C 17.906247 32.720736 19.667965 30.781285 23.1875 30.78125 z M 22.53125 49.6875 L 22.53125 59 C 22.531243 60.375981 23.186516 61.062505 24.53125 61.0625 L 25.40625 61.0625 C 26.782215 61.062505 27.468738 60.375981 27.46875 59 L 27.46875 52.1875 C 27.468738 50.523452 26.782215 49.687515 25.40625 49.6875 L 22.53125 49.6875 z "
       transform="translate(0,982.36218)"
       id="path3990" />
    <rect
       style="fill:none;stroke:#000000;stroke-width:1.02082932;stroke-linecap:round;stroke-linejoin:miter;stroke-miterlimit:4;stroke-opacity:1;stroke-dasharray:none"
       id="rect3992"
       width="48.979172"
       height="68.979172"
       x="0.51041466"
       y="982.87262"
       rx="4.4895864"
       ry="4.4895606" />
    <g
       transform="translate(49.509766,997.46887)"
       style="font-size:48px;font-style:normal;font-variant:normal;font-weight:normal;font-stretch:normal;text-align:start;line-height:100%;writing-mode:lr-tb;text-anchor:start;fill:#000000;fill-opacity:1;stroke:none;font-family:BigNoodleTitling;-inkscape-font-specification:BigNoodleTitling"
       id="text3755" />
    <g
       id="g3762"
       style="font-size:48px;font-style:normal;font-variant:normal;font-weight:normal;font-stretch:normal;text-align:start;line-height:100%;writing-mode:lr-tb;text-anchor:start;fill:#000000;fill-opacity:1;stroke:none;font-family:BigNoodleTitling;-inkscape-font-specification:BigNoodleTitling"
       transform="matrix(0.63835876,0,0,0.63835876,22.646024,974.36445)" />
    <g
       id="g3766"
       style="font-size:48px;font-style:normal;font-variant:normal;font-weight:normal;font-stretch:normal;text-align:start;line-height:100%;writing-mode:lr-tb;text-anchor:start;fill:#000000;fill-opacity:1;stroke:none;font-family:BigNoodleTitling;-inkscape-font-specification:BigNoodleTitling"
       transform="translate(49.509766,997.46887)" />
    <g
       transform="translate(49.509766,997.46887)"
       style="font-size:48px;font-style:normal;font-variant:normal;font-weight:normal;font-stretch:normal;text-align:start;line-height:100%;writing-mode:lr-tb;text-anchor:start;fill:#000000;fill-opacity:1;stroke:none;font-family:BigNoodleTitling;-inkscape-font-specification:BigNoodleTitling"
       id="g3770" />
  </g>
</svg>
