<?xml version="1.0" encoding="UTF-8" standalone="no"?>
<!-- Created with Inkscape (http://www.inkscape.org/) -->

<svg
   xmlns:dc="http://purl.org/dc/elements/1.1/"
   xmlns:cc="http://creativecommons.org/ns#"
   xmlns:rdf="http://www.w3.org/1999/02/22-rdf-syntax-ns#"
   xmlns:svg="http://www.w3.org/2000/svg"
   xmlns="http://www.w3.org/2000/svg"
   xmlns:xlink="http://www.w3.org/1999/xlink"
   xmlns:sodipodi="http://sodipodi.sourceforge.net/DTD/sodipodi-0.dtd"
   xmlns:inkscape="http://www.inkscape.org/namespaces/inkscape"
   width="50"
   height="70"
   id="svg2"
   version="1.1"
   inkscape:version="0.47 "
   sodipodi:docname="A.svg">
  <defs
     id="defs4">
    <linearGradient
       id="linearGradient6105">
      <stop
         style="stop-color:#3cbb26;stop-opacity:1;"
         offset="0"
         id="stop6107" />
      <stop
         style="stop-color:#000000;stop-opacity:0.50980395;"
         offset="1"
         id="stop6109" />
    </linearGradient>
    <g
       style="fill:#ffffff;fill-opacity:1;stroke:none"
       id="lys"
       transform="matrix(0.4,0,0,0.4,236.59,667.12)">
      <path
         id="lys_1"
         style="fill:#ffffff;fill-opacity:1;fill-rule:evenodd;stroke:none"
         transform="translate(-1.35,-0.76)"
         d="m 355.65,280.19 c 0,0 -3.75,-8.1 -8.1,-12.6 -4.36,-4.51 -9.68,-7.58 -11.04,-6.53" />
      <path
         id="lys_2"
         style="fill:#ffffff;fill-opacity:1;fill-rule:evenodd;stroke:none"
         d="m 368.97,258.94 c -2.29,0.08 -5.9,1.92 -7.85,3.87 -2.59,2.6 -3.52,7.58 -3.59,9.44 -0.07,1.86 -1.32,-0.84 -2.19,-2.37 -0.86,-1.54 -1.93,-5.4 -2.22,-3.22 -0.28,2.2 -0.34,3.26 0.07,5.72 0.4,2.45 1.59,7.15 2.56,8.68 l 3.97,3.94 c 1.87,-1.88 3.1,-6.25 3.19,-6.25 l -0.07,9.34 4.35,4.32 c -1.16,-2.37 -1.94,-6.58 -1.63,-10.38 0.32,-3.8 2.3,-8.59 2.06,-10.44 -1.14,-0.4 -2.9,2.58 -5.21,1.88 -0.08,-1.75 0.74,-6.02 1.9,-7.69 1.17,-1.66 4.43,-5.7 6.41,-6.28 -0.36,-0.42 -0.99,-0.59 -1.75,-0.56 z" />
      <path
         id="lys_3"
         style="fill:#ffffff;fill-opacity:1;fill-rule:evenodd;stroke:none"
         transform="translate(-1.35,-0.76)"
         d="m 329.36,254.28 c 9.62,-4.95 19.64,8.3 19.64,8.3 0,0 1.44,-9.25 3.32,-9.36 1.88,-0.11 4.87,7.31 4.87,7.31 0,0 5.76,-7.64 15.72,-7.58 9.97,0.05 11.57,9.13 5.87,9.57 -5.66,0.44 -2.38,-5.15 -2.27,-3.65 0.06,0.17 -5.37,-7.75 -19.15,7.86 -2.03,2.3 -3.94,-8.46 -4.93,-6.09 -1.21,2.88 -0.22,6.26 -1.11,8.53 1.39,1.71 -11.35,-13.84 -16.77,-9.58" />
      <use
         height="1216.1899"
         width="2178.99"
         y="0"
         x="0"
         id="use646"
         style="fill:#ffffff;fill-opacity:1;stroke:none"
         xlink:href="#lys_3"
         transform="matrix(0,1,1,0,74.5,-74.49)" />
      <use
         height="1216.1899"
         width="2178.99"
         y="0"
         x="0"
         id="use648"
         style="fill:#ffffff;fill-opacity:1;stroke:none"
         xlink:href="#lys_1"
         transform="matrix(0,1,1,0,74.9,-74.93)" />
      <use
         height="1216.1899"
         width="2178.99"
         y="0"
         x="0"
         id="use650"
         style="fill:#ffffff;fill-opacity:1;stroke:none"
         xlink:href="#lys_2"
         transform="matrix(0,1,1,0,74.82,-74.82)" />
    </g>
    <radialGradient
       inkscape:collect="always"
       xlink:href="#linearGradient6105"
       id="radialGradient5460"
       gradientUnits="userSpaceOnUse"
       gradientTransform="matrix(3.4677513,0.02853153,-0.00586026,2.1318507,-46.913249,-10.690075)"
       cx="20.746119"
       cy="4.9713411"
       fx="20.802559"
       fy="8.2045326"
       r="24.6875" />
    <radialGradient
       inkscape:collect="always"
       xlink:href="#linearGradient6105"
       id="radialGradient5463"
       gradientUnits="userSpaceOnUse"
       gradientTransform="matrix(3.4678167,0.02490806,1.2243669e-7,2.7949367,-47.133417,-35.37225)"
       cx="20.800816"
       cy="37.336853"
       fx="20.728724"
       fy="35.280205"
       r="24.6875" />
  </defs>
  <sodipodi:namedview
     id="base"
     pagecolor="#ffffff"
     bordercolor="#666666"
     borderopacity="1.0"
     inkscape:pageopacity="0.0"
     inkscape:pageshadow="2"
     inkscape:zoom="5.6568542"
     inkscape:cx="-63.960385"
     inkscape:cy="54.810724"
     inkscape:document-units="px"
     inkscape:current-layer="layer1"
     showgrid="false"
     showguides="true"
     inkscape:guide-bbox="true"
     inkscape:window-width="1680"
     inkscape:window-height="1028"
     inkscape:window-x="-4"
     inkscape:window-y="-4"
     inkscape:window-maximized="1"
     inkscape:snap-center="true">
    <sodipodi:guide
       orientation="1,0"
       position="25,22"
       id="guide3649" />
    <inkscape:grid
       type="xygrid"
       id="grid3665" />
    <sodipodi:guide
       orientation="1,0"
       position="8,57"
       id="guide3675" />
    <sodipodi:guide
       orientation="1,0"
       position="8,39"
       id="guide4399" />
  </sodipodi:namedview>
  <metadata
     id="metadata7">
    <rdf:RDF>
      <cc:Work
         rdf:about="">
        <dc:format>image/svg+xml</dc:format>
        <dc:type
           rdf:resource="http://purl.org/dc/dcmitype/StillImage" />
        <dc:title />
      </cc:Work>
    </rdf:RDF>
  </metadata>
  <g
     inkscape:label="Ebene 1"
     inkscape:groupmode="layer"
     id="layer1"
     transform="translate(0,-982.36218)">
    <rect
       style="fill:#ffffff;fill-opacity:1;fill-rule:evenodd;stroke:none"
       id="rect4405"
       width="48.979172"
       height="68.979172"
       x="0.51041466"
       y="982.74762"
       rx="4.4895864"
       ry="4.4895606" />
    <path
       style="fill:#008000;fill-opacity:1;fill-rule:evenodd;stroke:none"
       d="M 5 0.375 C 2.5127692 0.375 0.5 2.3877834 0.5 4.875 L 0.5 64.875 C 0.5 67.362217 2.5127692 69.375 5 69.375 L 45 69.375 C 47.487231 69.375 49.5 67.362217 49.5 64.875 L 49.5 4.875 C 49.5 2.3877834 47.487231 0.375 45 0.375 L 5 0.375 z M 6.90625 2 L 9.09375 2 C 11.443325 2.0000192 12.624987 3.2689764 12.625 5.78125 L 12.625 24 L 9.6875 24 L 9.6875 15.9375 L 6.3125 15.9375 L 6.3125 24 L 3.375 24 L 3.375 5.78125 C 3.375 3.2689764 4.5572877 2.0000192 6.90625 2 z M 7.59375 4.65625 C 6.7353235 4.6562692 6.3124936 5.079099 6.3125 5.9375 L 6.3125 13.28125 L 9.6875 13.28125 L 9.6875 5.9375 C 9.6874936 5.079099 9.2640382 4.6562692 8.40625 4.65625 L 7.59375 4.65625 z M 7.875 25.84375 C 8.0614235 25.832633 8.2478606 25.837 8.4375 25.875 C 8.8974683 25.967 9.2193981 26.1592 9.5625 26.5 C 9.9974193 26.9321 10.1875 27.37725 10.1875 27.96875 C 10.1875 28.54365 10.035561 28.9553 9.59375 29.4375 C 9.1811033 29.8878 9.0023462 30.14425 8.78125 30.59375 C 8.6753897 30.80885 8.59375 30.9854 8.59375 31 C 8.59375 31.054 8.8284249 30.8726 9.1875 30.5625 C 9.6065816 30.2007 9.9444377 30.0144 10.3125 29.9375 C 11.53893 29.6813 12.718826 30.41115 12.96875 31.59375 C 13.117708 32.29875 12.862636 33.0422 12.3125 33.5625 C 11.457579 34.3712 10.109905 34.3358 9.25 33.5 C 8.9819854 33.2395 8.6457759 32.9814 8.4375 32.875 L 8.28125 32.8125 L 8.3125 33.0625 C 8.383902 33.7593 8.6010338 34.4698 8.875 35 C 9.0013007 35.2443 9.0951903 35.4069 9.3125 35.625 C 9.6085617 35.922 9.8111957 36.0486 10.125 36.125 C 10.270662 36.161 9.8936055 36.15625 8 36.15625 C 6.0842889 36.15625 5.7276375 36.159 5.875 36.125 C 6.5681096 35.953 7.115169 35.29165 7.4375 34.28125 C 7.5388939 33.96335 7.6497047 33.4073 7.6875 33.0625 L 7.71875 32.84375 L 7.625 32.875 C 7.43674 32.974 7.1717388 33.1651 7 33.3125 C 6.44615 33.7879 6.1101502 34.00425 5.6875 34.09375 C 4.6904779 34.30505 3.6622371 33.8167 3.21875 32.9375 C 2.7941401 32.0958 2.9881049 31.13025 3.6875 30.46875 C 4.1051597 30.07375 4.5952601 29.8761 5.1875 29.875 C 5.8094044 29.875 6.2042882 30.055 6.8125 30.5625 C 7.0342382 30.7475 7.2594557 30.9095 7.3125 30.9375 L 7.40625 31 L 7.375 30.875 C 7.2227305 30.4435 6.9415035 30.03515 6.5 29.53125 C 5.9906451 28.94995 5.8429391 28.58625 5.84375 27.96875 C 5.8444842 27.41435 6.0079324 26.9549 6.375 26.5625 C 6.7815547 26.127875 7.3157294 25.877102 7.875 25.84375 z M 23.28125 30.78125 L 26.71875 30.78125 C 30.3994 30.78128 32.24998 32.72073 32.25 36.65625 L 32.25 65.21875 L 27.625 65.21875 L 27.625 52.59375 L 22.34375 52.59375 L 22.34375 65.21875 L 17.75 65.21875 L 17.75 36.65625 C 17.75 32.72073 19.60156 30.78128 23.28125 30.78125 z M 24.375 34.9375 C 23.03026 34.93753 22.34374 35.62405 22.34375 36.96875 L 22.34375 48.4375 L 27.625 48.4375 L 27.625 36.96875 C 27.62499 35.62405 26.96874 34.93753 25.625 34.9375 L 24.375 34.9375 z "
       transform="translate(0,982.36218)"
       id="rect2816" />
    <path
       style="opacity:1;fill:url(#radialGradient5463);fill-opacity:1;fill-rule:evenodd;stroke:none"
       d="M 41.0625 0.125 C 37.405487 0.090788513 32.254066 0.5 25 0.5 C -3.8912665 2.3125 0.18750001 -7.6495918 0.5 35 C 1.0303301 75.007674 -5.2374603 69.5 25 69.5 C 54.437523 69.5 49.5 75.961549 49.5 35 C 49.5 4.278431 52.033538 0.22763446 41.0625 0.125 z M 6.90625 2 L 9.09375 2 C 11.443325 2.0000192 12.624987 3.2689764 12.625 5.78125 L 12.625 24 L 9.6875 24 L 9.6875 15.9375 L 6.3125 15.9375 L 6.3125 24 L 3.375 24 L 3.375 5.78125 C 3.375 3.2689764 4.5572877 2.0000192 6.90625 2 z M 7.59375 4.65625 C 6.7353235 4.6562692 6.3124936 5.079099 6.3125 5.9375 L 6.3125 13.28125 L 9.6875 13.28125 L 9.6875 5.9375 C 9.6874936 5.079099 9.2640382 4.6562692 8.40625 4.65625 L 7.59375 4.65625 z M 7.875 25.84375 C 8.0614235 25.832633 8.2478606 25.837 8.4375 25.875 C 8.8974683 25.967 9.2193981 26.1592 9.5625 26.5 C 9.9974193 26.9321 10.1875 27.37725 10.1875 27.96875 C 10.1875 28.54365 10.035561 28.9553 9.59375 29.4375 C 9.1811033 29.8878 9.0023462 30.14425 8.78125 30.59375 C 8.6753897 30.80885 8.59375 30.9854 8.59375 31 C 8.59375 31.054 8.8284249 30.8726 9.1875 30.5625 C 9.6065816 30.2007 9.9444377 30.0144 10.3125 29.9375 C 11.53893 29.6813 12.718826 30.41115 12.96875 31.59375 C 13.117708 32.29875 12.862636 33.0422 12.3125 33.5625 C 11.457579 34.3712 10.109905 34.3358 9.25 33.5 C 8.9819854 33.2395 8.6457759 32.9814 8.4375 32.875 L 8.28125 32.8125 L 8.3125 33.0625 C 8.383902 33.7593 8.6010338 34.4698 8.875 35 C 9.0013007 35.2443 9.0951903 35.4069 9.3125 35.625 C 9.6085617 35.922 9.8111957 36.0486 10.125 36.125 C 10.270662 36.161 9.8936055 36.15625 8 36.15625 C 6.0842889 36.15625 5.7276375 36.159 5.875 36.125 C 6.5681096 35.953 7.115169 35.29165 7.4375 34.28125 C 7.5388939 33.96335 7.6497047 33.4073 7.6875 33.0625 L 7.71875 32.84375 L 7.625 32.875 C 7.43674 32.974 7.1717388 33.1651 7 33.3125 C 6.44615 33.7879 6.1101502 34.00425 5.6875 34.09375 C 4.6904779 34.30505 3.6622371 33.8167 3.21875 32.9375 C 2.7941401 32.0958 2.9881049 31.13025 3.6875 30.46875 C 4.1051597 30.07375 4.5952601 29.8761 5.1875 29.875 C 5.8094044 29.875 6.2042882 30.055 6.8125 30.5625 C 7.0342382 30.7475 7.2594557 30.9095 7.3125 30.9375 L 7.40625 31 L 7.375 30.875 C 7.2227305 30.4435 6.9415035 30.03515 6.5 29.53125 C 5.9906451 28.94995 5.8429391 28.58625 5.84375 27.96875 C 5.8444842 27.41435 6.0079324 26.9549 6.375 26.5625 C 6.7815547 26.127875 7.3157294 25.877102 7.875 25.84375 z M 23.28125 30.78125 L 26.71875 30.78125 C 30.3994 30.78128 32.24998 32.72073 32.25 36.65625 L 32.25 65.21875 L 27.625 65.21875 L 27.625 52.59375 L 22.34375 52.59375 L 22.34375 65.21875 L 17.75 65.21875 L 17.75 36.65625 C 17.75 32.72073 19.60156 30.78128 23.28125 30.78125 z M 24.375 34.9375 C 23.03026 34.93753 22.34374 35.62405 22.34375 36.96875 L 22.34375 48.4375 L 27.625 48.4375 L 27.625 36.96875 C 27.62499 35.62405 26.96874 34.93753 25.625 34.9375 L 24.375 34.9375 z "
       transform="translate(0,982.36218)"
       id="path6176" />
    <path
       style="opacity:1;fill:url(#radialGradient5460);fill-opacity:1;fill-rule:evenodd;stroke:none"
       d="M 41.0625 0.125 C 37.405487 0.090788513 32.254066 0.5 25 0.5 C -3.8912665 2.3125 0.18750001 -7.6495918 0.5 35 C 1.0303301 75.007674 -5.2374603 69.5 25 69.5 C 54.437523 69.5 49.5 75.961549 49.5 35 C 49.5 4.278431 52.033538 0.22763446 41.0625 0.125 z M 6.90625 2 L 9.09375 2 C 11.443325 2.0000192 12.624987 3.2689764 12.625 5.78125 L 12.625 24 L 9.6875 24 L 9.6875 15.9375 L 6.3125 15.9375 L 6.3125 24 L 3.375 24 L 3.375 5.78125 C 3.375 3.2689764 4.5572877 2.0000192 6.90625 2 z M 7.59375 4.65625 C 6.7353235 4.6562692 6.3124936 5.079099 6.3125 5.9375 L 6.3125 13.28125 L 9.6875 13.28125 L 9.6875 5.9375 C 9.6874936 5.079099 9.2640382 4.6562692 8.40625 4.65625 L 7.59375 4.65625 z M 7.875 25.84375 C 8.0614235 25.832633 8.2478606 25.837 8.4375 25.875 C 8.8974683 25.967 9.2193981 26.1592 9.5625 26.5 C 9.9974193 26.9321 10.1875 27.37725 10.1875 27.96875 C 10.1875 28.54365 10.035561 28.9553 9.59375 29.4375 C 9.1811033 29.8878 9.0023462 30.14425 8.78125 30.59375 C 8.6753897 30.80885 8.59375 30.9854 8.59375 31 C 8.59375 31.054 8.8284249 30.8726 9.1875 30.5625 C 9.6065816 30.2007 9.9444377 30.0144 10.3125 29.9375 C 11.53893 29.6813 12.718826 30.41115 12.96875 31.59375 C 13.117708 32.29875 12.862636 33.0422 12.3125 33.5625 C 11.457579 34.3712 10.109905 34.3358 9.25 33.5 C 8.9819854 33.2395 8.6457759 32.9814 8.4375 32.875 L 8.28125 32.8125 L 8.3125 33.0625 C 8.383902 33.7593 8.6010338 34.4698 8.875 35 C 9.0013007 35.2443 9.0951903 35.4069 9.3125 35.625 C 9.6085617 35.922 9.8111957 36.0486 10.125 36.125 C 10.270662 36.161 9.8936055 36.15625 8 36.15625 C 6.0842889 36.15625 5.7276375 36.159 5.875 36.125 C 6.5681096 35.953 7.115169 35.29165 7.4375 34.28125 C 7.5388939 33.96335 7.6497047 33.4073 7.6875 33.0625 L 7.71875 32.84375 L 7.625 32.875 C 7.43674 32.974 7.1717388 33.1651 7 33.3125 C 6.44615 33.7879 6.1101502 34.00425 5.6875 34.09375 C 4.6904779 34.30505 3.6622371 33.8167 3.21875 32.9375 C 2.7941401 32.0958 2.9881049 31.13025 3.6875 30.46875 C 4.1051597 30.07375 4.5952601 29.8761 5.1875 29.875 C 5.8094044 29.875 6.2042882 30.055 6.8125 30.5625 C 7.0342382 30.7475 7.2594557 30.9095 7.3125 30.9375 L 7.40625 31 L 7.375 30.875 C 7.2227305 30.4435 6.9415035 30.03515 6.5 29.53125 C 5.9906451 28.94995 5.8429391 28.58625 5.84375 27.96875 C 5.8444842 27.41435 6.0079324 26.9549 6.375 26.5625 C 6.7815547 26.127875 7.3157294 25.877102 7.875 25.84375 z M 23.28125 30.78125 L 26.71875 30.78125 C 30.3994 30.78128 32.24998 32.72073 32.25 36.65625 L 32.25 65.21875 L 27.625 65.21875 L 27.625 52.59375 L 22.34375 52.59375 L 22.34375 65.21875 L 17.75 65.21875 L 17.75 36.65625 C 17.75 32.72073 19.60156 30.78128 23.28125 30.78125 z M 24.375 34.9375 C 23.03026 34.93753 22.34374 35.62405 22.34375 36.96875 L 22.34375 48.4375 L 27.625 48.4375 L 27.625 36.96875 C 27.62499 35.62405 26.96874 34.93753 25.625 34.9375 L 24.375 34.9375 z "
       transform="translate(0,982.36218)"
       id="path6103" />
    <text
       xml:space="preserve"
       style="font-size:48px;font-style:normal;font-variant:normal;font-weight:normal;font-stretch:normal;text-align:start;line-height:100%;writing-mode:lr-tb;text-anchor:start;fill:#000000;fill-opacity:1;stroke:none;font-family:BigNoodleTitling;-inkscape-font-specification:BigNoodleTitling"
       x="-143.54268"
       y="40.655067"
       id="text3638"
       sodipodi:linespacing="100%"
       transform="translate(0,982.36218)"><tspan
         sodipodi:role="line"
         id="tspan3640"
         x="-143.54268"
         y="40.655067" /></text>
    <rect
       ry="4.4895606"
       rx="4.4895864"
       y="982.87262"
       x="0.51041466"
       height="68.979172"
       width="48.979172"
       id="rect3596"
       style="fill:none;fill-opacity:1;fill-rule:evenodd;stroke:#000000;stroke-width:1.02082932000000000;stroke-linecap:round;stroke-linejoin:miter;stroke-miterlimit:4;stroke-opacity:1;stroke-dasharray:none" />
    <g
       id="g3671"
       style="font-size:48px;font-style:normal;font-variant:normal;font-weight:normal;font-stretch:normal;text-align:start;line-height:100%;writing-mode:lr-tb;text-anchor:start;fill:#ffffff;fill-opacity:1;stroke:none;font-family:BigNoodleTitling;-inkscape-font-specification:BigNoodleTitling"
       transform="matrix(0.63835874,0,0,0.63835874,-8.6860687,963.48262)" />
    <g
       transform="translate(-1.139015,980.4223)"
       style="font-size:48px;font-style:normal;font-variant:normal;font-weight:normal;font-stretch:normal;text-align:start;line-height:100%;writing-mode:lr-tb;text-anchor:start;fill:#ffffff;fill-opacity:1;stroke:none;font-family:BigNoodleTitling;-inkscape-font-specification:BigNoodleTitling"
       id="text3642" />
    <text
       xml:space="preserve"
       style="font-size:48px;font-style:normal;font-variant:normal;font-weight:normal;font-stretch:normal;text-align:start;line-height:100%;writing-mode:lr-tb;text-anchor:start;fill:#000000;fill-opacity:1;stroke:none;font-family:BigNoodleTitling;-inkscape-font-specification:BigNoodleTitling"
       x="-105.71246"
       y="89.798988"
       id="text4401"
       sodipodi:linespacing="100%"
       transform="translate(0,982.36218)"><tspan
         sodipodi:role="line"
         id="tspan4403"
         x="-105.71246"
         y="89.798988" /></text>
    <g
       transform="translate(0,982.36218)"
       style="font-size:48px;font-style:normal;font-variant:normal;font-weight:normal;font-stretch:normal;text-align:start;line-height:100%;writing-mode:lr-tb;text-anchor:start;fill:#000000;fill-opacity:1;stroke:none;font-family:BigNoodleTitling;-inkscape-font-specification:BigNoodleTitling"
       id="text4480" />
    <g
       id="g5374"
       style="font-size:48px;font-style:normal;font-variant:normal;font-weight:normal;font-stretch:normal;text-align:start;line-height:100%;writing-mode:lr-tb;text-anchor:start;fill:#ffffff;fill-opacity:1;stroke:none;font-family:BigNoodleTitling;-inkscape-font-specification:BigNoodleTitling"
       transform="translate(-1.139015,980.4223)" />
    <g
       id="g5385"
       style="font-size:48px;font-style:normal;font-variant:normal;font-weight:normal;font-stretch:normal;text-align:start;line-height:100%;writing-mode:lr-tb;text-anchor:start;fill:#ffffff;fill-opacity:1;stroke:none;font-family:BigNoodleTitling;-inkscape-font-specification:BigNoodleTitling"
       transform="translate(-1.139015,980.4223)" />
    <g
       transform="matrix(0.63835874,0,0,0.63835874,-8.6860687,963.48262)"
       style="font-size:48px;font-style:normal;font-variant:normal;font-weight:normal;font-stretch:normal;text-align:start;line-height:100%;writing-mode:lr-tb;text-anchor:start;fill:#ffffff;fill-opacity:1;stroke:none;font-family:BigNoodleTitling;-inkscape-font-specification:BigNoodleTitling"
       id="g5441" />
    <g
       id="g5445"
       style="font-size:48px;font-style:normal;font-variant:normal;font-weight:normal;font-stretch:normal;text-align:start;line-height:100%;writing-mode:lr-tb;text-anchor:start;fill:#ffffff;fill-opacity:1;stroke:none;font-family:BigNoodleTitling;-inkscape-font-specification:BigNoodleTitling"
       transform="matrix(0.63835874,0,0,0.63835874,-8.6860687,963.48262)" />
  </g>
</svg>
