<?xml version="1.0" encoding="UTF-8" standalone="no"?>
<!-- Created with Inkscape (http://www.inkscape.org/) -->

<svg
   xmlns:dc="http://purl.org/dc/elements/1.1/"
   xmlns:cc="http://creativecommons.org/ns#"
   xmlns:rdf="http://www.w3.org/1999/02/22-rdf-syntax-ns#"
   xmlns:svg="http://www.w3.org/2000/svg"
   xmlns="http://www.w3.org/2000/svg"
   xmlns:xlink="http://www.w3.org/1999/xlink"
   xmlns:sodipodi="http://sodipodi.sourceforge.net/DTD/sodipodi-0.dtd"
   xmlns:inkscape="http://www.inkscape.org/namespaces/inkscape"
   width="50"
   height="70"
   id="svg2"
   version="1.1"
   inkscape:version="0.47 "
   sodipodi:docname="8.svg">
  <defs
     id="defs4">
    <linearGradient
       id="linearGradient6105">
      <stop
         style="stop-color:#3cbb26;stop-opacity:1;"
         offset="0"
         id="stop6107" />
      <stop
         style="stop-color:#000000;stop-opacity:0.50980395;"
         offset="1"
         id="stop6109" />
    </linearGradient>
    <g
       style="fill:#ffffff;fill-opacity:1;stroke:none"
       id="lys"
       transform="matrix(0.4,0,0,0.4,236.59,667.12)">
      <path
         id="lys_1"
         style="fill:#ffffff;fill-opacity:1;fill-rule:evenodd;stroke:none"
         transform="translate(-1.35,-0.76)"
         d="m 355.65,280.19 c 0,0 -3.75,-8.1 -8.1,-12.6 -4.36,-4.51 -9.68,-7.58 -11.04,-6.53" />
      <path
         id="lys_2"
         style="fill:#ffffff;fill-opacity:1;fill-rule:evenodd;stroke:none"
         d="m 368.97,258.94 c -2.29,0.08 -5.9,1.92 -7.85,3.87 -2.59,2.6 -3.52,7.58 -3.59,9.44 -0.07,1.86 -1.32,-0.84 -2.19,-2.37 -0.86,-1.54 -1.93,-5.4 -2.22,-3.22 -0.28,2.2 -0.34,3.26 0.07,5.72 0.4,2.45 1.59,7.15 2.56,8.68 l 3.97,3.94 c 1.87,-1.88 3.1,-6.25 3.19,-6.25 l -0.07,9.34 4.35,4.32 c -1.16,-2.37 -1.94,-6.58 -1.63,-10.38 0.32,-3.8 2.3,-8.59 2.06,-10.44 -1.14,-0.4 -2.9,2.58 -5.21,1.88 -0.08,-1.75 0.74,-6.02 1.9,-7.69 1.17,-1.66 4.43,-5.7 6.41,-6.28 -0.36,-0.42 -0.99,-0.59 -1.75,-0.56 z" />
      <path
         id="lys_3"
         style="fill:#ffffff;fill-opacity:1;fill-rule:evenodd;stroke:none"
         transform="translate(-1.35,-0.76)"
         d="m 329.36,254.28 c 9.62,-4.95 19.64,8.3 19.64,8.3 0,0 1.44,-9.25 3.32,-9.36 1.88,-0.11 4.87,7.31 4.87,7.31 0,0 5.76,-7.64 15.72,-7.58 9.97,0.05 11.57,9.13 5.87,9.57 -5.66,0.44 -2.38,-5.15 -2.27,-3.65 0.06,0.17 -5.37,-7.75 -19.15,7.86 -2.03,2.3 -3.94,-8.46 -4.93,-6.09 -1.21,2.88 -0.22,6.26 -1.11,8.53 1.39,1.71 -11.35,-13.84 -16.77,-9.58" />
      <use
         height="1216.1899"
         width="2178.99"
         y="0"
         x="0"
         id="use646"
         style="fill:#ffffff;fill-opacity:1;stroke:none"
         xlink:href="#lys_3"
         transform="matrix(0,1,1,0,74.5,-74.49)" />
      <use
         height="1216.1899"
         width="2178.99"
         y="0"
         x="0"
         id="use648"
         style="fill:#ffffff;fill-opacity:1;stroke:none"
         xlink:href="#lys_1"
         transform="matrix(0,1,1,0,74.9,-74.93)" />
      <use
         height="1216.1899"
         width="2178.99"
         y="0"
         x="0"
         id="use650"
         style="fill:#ffffff;fill-opacity:1;stroke:none"
         xlink:href="#lys_2"
         transform="matrix(0,1,1,0,74.82,-74.82)" />
    </g>
    <radialGradient
       inkscape:collect="always"
       xlink:href="#linearGradient6105"
       id="radialGradient3411"
       gradientUnits="userSpaceOnUse"
       gradientTransform="matrix(3.4677513,0.02853153,-0.00586026,2.1318507,-46.913249,-10.690075)"
       cx="20.746119"
       cy="4.9713411"
       fx="20.802559"
       fy="8.2045326"
       r="24.6875" />
    <radialGradient
       inkscape:collect="always"
       xlink:href="#linearGradient6105"
       id="radialGradient3414"
       gradientUnits="userSpaceOnUse"
       gradientTransform="matrix(3.4678167,0.02490806,1.2243669e-7,2.7949367,-47.133417,-35.37225)"
       cx="20.800816"
       cy="37.336853"
       fx="20.728724"
       fy="35.280205"
       r="24.6875" />
  </defs>
  <sodipodi:namedview
     id="base"
     pagecolor="#ffffff"
     bordercolor="#666666"
     borderopacity="1.0"
     inkscape:pageopacity="0.0"
     inkscape:pageshadow="2"
     inkscape:zoom="5.6568542"
     inkscape:cx="-45.402228"
     inkscape:cy="36.333913"
     inkscape:document-units="px"
     inkscape:current-layer="layer1"
     showgrid="false"
     showguides="true"
     inkscape:guide-bbox="true"
     inkscape:window-width="1680"
     inkscape:window-height="1028"
     inkscape:window-x="-4"
     inkscape:window-y="-4"
     inkscape:window-maximized="1"
     inkscape:snap-center="true">
    <sodipodi:guide
       orientation="1,0"
       position="25,22"
       id="guide3649" />
    <inkscape:grid
       type="xygrid"
       id="grid3665" />
    <sodipodi:guide
       orientation="1,0"
       position="7,57"
       id="guide3675" />
    <sodipodi:guide
       orientation="1,0"
       position="7,40"
       id="guide4399" />
  </sodipodi:namedview>
  <metadata
     id="metadata7">
    <rdf:RDF>
      <cc:Work
         rdf:about="">
        <dc:format>image/svg+xml</dc:format>
        <dc:type
           rdf:resource="http://purl.org/dc/dcmitype/StillImage" />
        <dc:title />
      </cc:Work>
    </rdf:RDF>
  </metadata>
  <g
     inkscape:label="Ebene 1"
     inkscape:groupmode="layer"
     id="layer1"
     transform="translate(0,-982.36218)">
    <rect
       style="fill:#ffffff;fill-opacity:1;fill-rule:evenodd;stroke:none"
       id="rect4405"
       width="48.979172"
       height="68.979172"
       x="0.51041466"
       y="982.74762"
       rx="4.4895864"
       ry="4.4895606" />
    <path
       style="fill:#008000;fill-opacity:1;fill-rule:evenodd;stroke:none"
       d="M 5 0.375 C 2.5127692 0.375 0.5 2.3877834 0.5 4.875 L 0.5 64.875 C 0.5 67.362217 2.5127692 69.375 5 69.375 L 45 69.375 C 47.487231 69.375 49.5 67.362217 49.5 64.875 L 49.5 4.875 C 49.5 2.3877834 47.487231 0.375 45 0.375 L 5 0.375 z M 6.09375 2 L 7.90625 2 C 10.255202 2.000022 11.43749 3.26898 11.4375 5.78125 L 11.4375 10.15625 C 11.43749 11.626857 10.786682 12.5058 9.5 12.8125 C 10.92944 13.220836 11.656239 14.089101 11.65625 15.4375 L 11.65625 20.25 C 11.656239 22.742343 10.473951 24 8.125 24 L 5.875 24 C 3.526037 24 2.343749 22.742343 2.34375 20.25 L 2.34375 15.40625 C 2.343749 14.057851 3.135238 13.189585 4.6875 12.78125 C 3.277997 12.474549 2.562499 11.595607 2.5625 10.125 L 2.5625 5.78125 C 2.562499 3.26898 3.744787 2.000022 6.09375 2 z M 6.84375 4.6875 C 5.965378 4.687519 5.499995 5.219 5.5 6.28125 L 5.5 9.9375 C 5.499995 10.999782 5.965378 11.531262 6.84375 11.53125 L 7.15625 11.53125 C 8.03461 11.388504 8.499993 10.867702 8.5 9.96875 L 8.5 6.28125 C 8.499993 5.219 8.03461 4.687519 7.15625 4.6875 L 6.84375 4.6875 z M 7 14.0625 C 5.856061 14.08308 5.312495 14.592583 5.3125 15.59375 L 5.3125 19.75 C 5.312495 20.812271 5.746628 21.343754 6.625 21.34375 L 7.375 21.34375 C 8.25336 21.343754 8.687492 20.812271 8.6875 19.75 L 8.6875 15.625 C 8.687492 14.583312 8.123978 14.06251 7 14.0625 z M 6.875 24.84375 C 7.0614236 24.832619 7.2478605 24.837025 7.4375 24.875 C 7.897468 24.967 8.219399 25.1592 8.5625 25.5 C 8.997419 25.9322 9.1875 26.37735 9.1875 26.96875 C 9.1875 27.54365 9.035561 27.9553 8.59375 28.4375 C 8.181104 28.8878 8.002347 29.14435 7.78125 29.59375 C 7.67539 29.80895 7.59375 29.9854 7.59375 30 C 7.59375 30.054 7.828426 29.8725 8.1875 29.5625 C 8.606582 29.2006 8.944438 29.0144 9.3125 28.9375 C 10.538931 28.6811 11.718826 29.41105 11.96875 30.59375 C 12.117708 31.29865 11.862636 32.0421 11.3125 32.5625 C 10.457579 33.3711 9.109905 33.3358 8.25 32.5 C 7.981985 32.2395 7.645776 31.9814 7.4375 31.875 L 7.28125 31.8125 L 7.3125 32.0625 C 7.3839 32.7594 7.601034 33.4698 7.875 34 C 8.001301 34.2444 8.095191 34.4069 8.3125 34.625 C 8.608561 34.9221 8.811196 35.0486 9.125 35.125 C 9.270662 35.16 8.893606 35.15625 7 35.15625 C 5.08429 35.15625 4.727638 35.159 4.875 35.125 C 5.56811 34.953 6.115168 34.29175 6.4375 33.28125 C 6.538893 32.96335 6.649705 32.4074 6.6875 32.0625 L 6.71875 31.84375 L 6.625 31.875 C 6.43674 31.974 6.171739 32.1651 6 32.3125 C 5.44615 32.7879 5.11015 33.00415 4.6875 33.09375 C 3.690478 33.30495 2.662237 32.8166 2.21875 31.9375 C 1.79414 31.0957 1.988105 30.13025 2.6875 29.46875 C 3.105159 29.07365 3.59526 28.8762 4.1875 28.875 C 4.809404 28.875 5.204288 29.0548 5.8125 29.5625 C 6.034238 29.7475 6.259455 29.9094 6.3125 29.9375 L 6.40625 30 L 6.375 29.875 C 6.222731 29.4434 5.941504 29.03515 5.5 28.53125 C 4.990646 27.94985 4.842939 27.58625 4.84375 26.96875 C 4.844473 26.41445 5.007932 25.9548 5.375 25.5625 C 5.7815547 25.127875 6.3157292 24.877144 6.875 24.84375 z M 23.59375 30.78125 L 26.40625 30.78125 C 30.085924 30.781285 31.937484 32.720736 31.9375 36.65625 L 31.9375 43.53125 C 31.937484 45.834981 30.92186 47.238299 28.90625 47.71875 C 31.145493 48.358415 32.281233 49.731461 32.28125 51.84375 L 32.28125 59.375 C 32.281233 63.279299 30.429673 65.21875 26.75 65.21875 L 23.25 65.21875 C 19.570309 65.21875 17.718748 63.279299 17.71875 59.375 L 17.71875 51.78125 C 17.718748 49.66896 18.943356 48.295915 21.375 47.65625 C 19.166989 47.175799 18.062498 45.803731 18.0625 43.5 L 18.0625 36.65625 C 18.062498 32.720736 19.914058 30.781285 23.59375 30.78125 z M 24.75 35 C 23.374016 35.00003 22.687493 35.835967 22.6875 37.5 L 22.6875 43.1875 C 22.687493 44.851583 23.374016 45.687519 24.75 45.6875 L 25.25 45.6875 C 26.625966 45.463887 27.312489 44.658224 27.3125 43.25 L 27.3125 37.5 C 27.312489 35.835967 26.625966 35.00003 25.25 35 L 24.75 35 z M 25.03125 49.6875 C 23.23925 49.71974 22.343743 50.525405 22.34375 52.09375 L 22.34375 58.5625 C 22.343743 60.226567 23.030266 61.062505 24.40625 61.0625 L 25.59375 61.0625 C 26.969716 61.062505 27.656238 60.226567 27.65625 58.5625 L 27.65625 52.125 C 27.656238 50.493179 26.791981 49.687515 25.03125 49.6875 z "
       transform="translate(0,982.36218)"
       id="rect2816" />
    <path
       style="opacity:1;fill:url(#radialGradient3414);fill-opacity:1;fill-rule:evenodd;stroke:none"
       d="M 41.0625 0.125 C 37.405487 0.090788513 32.254066 0.5 25 0.5 C -3.8912665 2.3125 0.18750001 -7.6495918 0.5 35 C 1.0303301 75.007674 -5.2374603 69.5 25 69.5 C 54.437523 69.5 49.5 75.961549 49.5 35 C 49.5 4.278431 52.033538 0.22763446 41.0625 0.125 z M 6.09375 2 L 7.90625 2 C 10.255202 2.000022 11.43749 3.26898 11.4375 5.78125 L 11.4375 10.15625 C 11.43749 11.626857 10.786682 12.5058 9.5 12.8125 C 10.92944 13.220836 11.656239 14.089101 11.65625 15.4375 L 11.65625 20.25 C 11.656239 22.742343 10.473951 24 8.125 24 L 5.875 24 C 3.526037 24 2.343749 22.742343 2.34375 20.25 L 2.34375 15.40625 C 2.343749 14.057851 3.135238 13.189585 4.6875 12.78125 C 3.277997 12.474549 2.562499 11.595607 2.5625 10.125 L 2.5625 5.78125 C 2.562499 3.26898 3.744787 2.000022 6.09375 2 z M 6.84375 4.6875 C 5.965378 4.687519 5.499995 5.219 5.5 6.28125 L 5.5 9.9375 C 5.499995 10.999782 5.965378 11.531262 6.84375 11.53125 L 7.15625 11.53125 C 8.03461 11.388504 8.499993 10.867702 8.5 9.96875 L 8.5 6.28125 C 8.499993 5.219 8.03461 4.687519 7.15625 4.6875 L 6.84375 4.6875 z M 7 14.0625 C 5.856061 14.08308 5.312495 14.592583 5.3125 15.59375 L 5.3125 19.75 C 5.312495 20.812271 5.746628 21.343754 6.625 21.34375 L 7.375 21.34375 C 8.25336 21.343754 8.687492 20.812271 8.6875 19.75 L 8.6875 15.625 C 8.687492 14.583312 8.123978 14.06251 7 14.0625 z M 6.875 24.84375 C 7.0614236 24.832619 7.2478605 24.837025 7.4375 24.875 C 7.897468 24.967 8.219399 25.1592 8.5625 25.5 C 8.997419 25.9322 9.1875 26.37735 9.1875 26.96875 C 9.1875 27.54365 9.035561 27.9553 8.59375 28.4375 C 8.181104 28.8878 8.002347 29.14435 7.78125 29.59375 C 7.67539 29.80895 7.59375 29.9854 7.59375 30 C 7.59375 30.054 7.828426 29.8725 8.1875 29.5625 C 8.606582 29.2006 8.944438 29.0144 9.3125 28.9375 C 10.538931 28.6811 11.718826 29.41105 11.96875 30.59375 C 12.117708 31.29865 11.862636 32.0421 11.3125 32.5625 C 10.457579 33.3711 9.109905 33.3358 8.25 32.5 C 7.981985 32.2395 7.645776 31.9814 7.4375 31.875 L 7.28125 31.8125 L 7.3125 32.0625 C 7.3839 32.7594 7.601034 33.4698 7.875 34 C 8.001301 34.2444 8.095191 34.4069 8.3125 34.625 C 8.608561 34.9221 8.811196 35.0486 9.125 35.125 C 9.270662 35.16 8.893606 35.15625 7 35.15625 C 5.08429 35.15625 4.727638 35.159 4.875 35.125 C 5.56811 34.953 6.115168 34.29175 6.4375 33.28125 C 6.538893 32.96335 6.649705 32.4074 6.6875 32.0625 L 6.71875 31.84375 L 6.625 31.875 C 6.43674 31.974 6.171739 32.1651 6 32.3125 C 5.44615 32.7879 5.11015 33.00415 4.6875 33.09375 C 3.690478 33.30495 2.662237 32.8166 2.21875 31.9375 C 1.79414 31.0957 1.988105 30.13025 2.6875 29.46875 C 3.105159 29.07365 3.59526 28.8762 4.1875 28.875 C 4.809404 28.875 5.204288 29.0548 5.8125 29.5625 C 6.034238 29.7475 6.259455 29.9094 6.3125 29.9375 L 6.40625 30 L 6.375 29.875 C 6.222731 29.4434 5.941504 29.03515 5.5 28.53125 C 4.990646 27.94985 4.842939 27.58625 4.84375 26.96875 C 4.844473 26.41445 5.007932 25.9548 5.375 25.5625 C 5.7815547 25.127875 6.3157292 24.877144 6.875 24.84375 z M 23.59375 30.78125 L 26.40625 30.78125 C 30.085924 30.781285 31.937484 32.720736 31.9375 36.65625 L 31.9375 43.53125 C 31.937484 45.834981 30.92186 47.238299 28.90625 47.71875 C 31.145493 48.358415 32.281233 49.731461 32.28125 51.84375 L 32.28125 59.375 C 32.281233 63.279299 30.429673 65.21875 26.75 65.21875 L 23.25 65.21875 C 19.570309 65.21875 17.718748 63.279299 17.71875 59.375 L 17.71875 51.78125 C 17.718748 49.66896 18.943356 48.295915 21.375 47.65625 C 19.166989 47.175799 18.062498 45.803731 18.0625 43.5 L 18.0625 36.65625 C 18.062498 32.720736 19.914058 30.781285 23.59375 30.78125 z M 24.75 35 C 23.374016 35.00003 22.687493 35.835967 22.6875 37.5 L 22.6875 43.1875 C 22.687493 44.851583 23.374016 45.687519 24.75 45.6875 L 25.25 45.6875 C 26.625966 45.463887 27.312489 44.658224 27.3125 43.25 L 27.3125 37.5 C 27.312489 35.835967 26.625966 35.00003 25.25 35 L 24.75 35 z M 25.03125 49.6875 C 23.23925 49.71974 22.343743 50.525405 22.34375 52.09375 L 22.34375 58.5625 C 22.343743 60.226567 23.030266 61.062505 24.40625 61.0625 L 25.59375 61.0625 C 26.969716 61.062505 27.656238 60.226567 27.65625 58.5625 L 27.65625 52.125 C 27.656238 50.493179 26.791981 49.687515 25.03125 49.6875 z "
       transform="translate(0,982.36218)"
       id="path6176" />
    <path
       style="opacity:1;fill:url(#radialGradient3411);fill-opacity:1;fill-rule:evenodd;stroke:none"
       d="M 41.0625 0.125 C 37.405487 0.090788513 32.254066 0.5 25 0.5 C -3.8912665 2.3125 0.18750001 -7.6495918 0.5 35 C 1.0303301 75.007674 -5.2374603 69.5 25 69.5 C 54.437523 69.5 49.5 75.961549 49.5 35 C 49.5 4.278431 52.033538 0.22763446 41.0625 0.125 z M 6.09375 2 L 7.90625 2 C 10.255202 2.000022 11.43749 3.26898 11.4375 5.78125 L 11.4375 10.15625 C 11.43749 11.626857 10.786682 12.5058 9.5 12.8125 C 10.92944 13.220836 11.656239 14.089101 11.65625 15.4375 L 11.65625 20.25 C 11.656239 22.742343 10.473951 24 8.125 24 L 5.875 24 C 3.526037 24 2.343749 22.742343 2.34375 20.25 L 2.34375 15.40625 C 2.343749 14.057851 3.135238 13.189585 4.6875 12.78125 C 3.277997 12.474549 2.562499 11.595607 2.5625 10.125 L 2.5625 5.78125 C 2.562499 3.26898 3.744787 2.000022 6.09375 2 z M 6.84375 4.6875 C 5.965378 4.687519 5.499995 5.219 5.5 6.28125 L 5.5 9.9375 C 5.499995 10.999782 5.965378 11.531262 6.84375 11.53125 L 7.15625 11.53125 C 8.03461 11.388504 8.499993 10.867702 8.5 9.96875 L 8.5 6.28125 C 8.499993 5.219 8.03461 4.687519 7.15625 4.6875 L 6.84375 4.6875 z M 7 14.0625 C 5.856061 14.08308 5.312495 14.592583 5.3125 15.59375 L 5.3125 19.75 C 5.312495 20.812271 5.746628 21.343754 6.625 21.34375 L 7.375 21.34375 C 8.25336 21.343754 8.687492 20.812271 8.6875 19.75 L 8.6875 15.625 C 8.687492 14.583312 8.123978 14.06251 7 14.0625 z M 6.875 24.84375 C 7.0614236 24.832619 7.2478605 24.837025 7.4375 24.875 C 7.897468 24.967 8.219399 25.1592 8.5625 25.5 C 8.997419 25.9322 9.1875 26.37735 9.1875 26.96875 C 9.1875 27.54365 9.035561 27.9553 8.59375 28.4375 C 8.181104 28.8878 8.002347 29.14435 7.78125 29.59375 C 7.67539 29.80895 7.59375 29.9854 7.59375 30 C 7.59375 30.054 7.828426 29.8725 8.1875 29.5625 C 8.606582 29.2006 8.944438 29.0144 9.3125 28.9375 C 10.538931 28.6811 11.718826 29.41105 11.96875 30.59375 C 12.117708 31.29865 11.862636 32.0421 11.3125 32.5625 C 10.457579 33.3711 9.109905 33.3358 8.25 32.5 C 7.981985 32.2395 7.645776 31.9814 7.4375 31.875 L 7.28125 31.8125 L 7.3125 32.0625 C 7.3839 32.7594 7.601034 33.4698 7.875 34 C 8.001301 34.2444 8.095191 34.4069 8.3125 34.625 C 8.608561 34.9221 8.811196 35.0486 9.125 35.125 C 9.270662 35.16 8.893606 35.15625 7 35.15625 C 5.08429 35.15625 4.727638 35.159 4.875 35.125 C 5.56811 34.953 6.115168 34.29175 6.4375 33.28125 C 6.538893 32.96335 6.649705 32.4074 6.6875 32.0625 L 6.71875 31.84375 L 6.625 31.875 C 6.43674 31.974 6.171739 32.1651 6 32.3125 C 5.44615 32.7879 5.11015 33.00415 4.6875 33.09375 C 3.690478 33.30495 2.662237 32.8166 2.21875 31.9375 C 1.79414 31.0957 1.988105 30.13025 2.6875 29.46875 C 3.105159 29.07365 3.59526 28.8762 4.1875 28.875 C 4.809404 28.875 5.204288 29.0548 5.8125 29.5625 C 6.034238 29.7475 6.259455 29.9094 6.3125 29.9375 L 6.40625 30 L 6.375 29.875 C 6.222731 29.4434 5.941504 29.03515 5.5 28.53125 C 4.990646 27.94985 4.842939 27.58625 4.84375 26.96875 C 4.844473 26.41445 5.007932 25.9548 5.375 25.5625 C 5.7815547 25.127875 6.3157292 24.877144 6.875 24.84375 z M 23.59375 30.78125 L 26.40625 30.78125 C 30.085924 30.781285 31.937484 32.720736 31.9375 36.65625 L 31.9375 43.53125 C 31.937484 45.834981 30.92186 47.238299 28.90625 47.71875 C 31.145493 48.358415 32.281233 49.731461 32.28125 51.84375 L 32.28125 59.375 C 32.281233 63.279299 30.429673 65.21875 26.75 65.21875 L 23.25 65.21875 C 19.570309 65.21875 17.718748 63.279299 17.71875 59.375 L 17.71875 51.78125 C 17.718748 49.66896 18.943356 48.295915 21.375 47.65625 C 19.166989 47.175799 18.062498 45.803731 18.0625 43.5 L 18.0625 36.65625 C 18.062498 32.720736 19.914058 30.781285 23.59375 30.78125 z M 24.75 35 C 23.374016 35.00003 22.687493 35.835967 22.6875 37.5 L 22.6875 43.1875 C 22.687493 44.851583 23.374016 45.687519 24.75 45.6875 L 25.25 45.6875 C 26.625966 45.463887 27.312489 44.658224 27.3125 43.25 L 27.3125 37.5 C 27.312489 35.835967 26.625966 35.00003 25.25 35 L 24.75 35 z M 25.03125 49.6875 C 23.23925 49.71974 22.343743 50.525405 22.34375 52.09375 L 22.34375 58.5625 C 22.343743 60.226567 23.030266 61.062505 24.40625 61.0625 L 25.59375 61.0625 C 26.969716 61.062505 27.656238 60.226567 27.65625 58.5625 L 27.65625 52.125 C 27.656238 50.493179 26.791981 49.687515 25.03125 49.6875 z "
       transform="translate(0,982.36218)"
       id="path6103" />
    <text
       xml:space="preserve"
       style="font-size:48px;font-style:normal;font-variant:normal;font-weight:normal;font-stretch:normal;text-align:start;line-height:100%;writing-mode:lr-tb;text-anchor:start;fill:#000000;fill-opacity:1;stroke:none;font-family:BigNoodleTitling;-inkscape-font-specification:BigNoodleTitling"
       x="-143.54268"
       y="40.655067"
       id="text3638"
       sodipodi:linespacing="100%"
       transform="translate(0,982.36218)"><tspan
         sodipodi:role="line"
         id="tspan3640"
         x="-143.54268"
         y="40.655067" /></text>
    <rect
       ry="4.4895606"
       rx="4.4895864"
       y="982.87262"
       x="0.51041466"
       height="68.979172"
       width="48.979172"
       id="rect3596"
       style="fill:none;fill-opacity:1;fill-rule:evenodd;stroke:#000000;stroke-width:1.02082932000000000;stroke-linecap:round;stroke-linejoin:miter;stroke-miterlimit:4;stroke-opacity:1;stroke-dasharray:none" />
    <text
       xml:space="preserve"
       style="font-size:48px;font-style:normal;font-variant:normal;font-weight:normal;font-stretch:normal;text-align:start;line-height:100%;writing-mode:lr-tb;text-anchor:start;fill:#000000;fill-opacity:1;stroke:none;font-family:BigNoodleTitling;-inkscape-font-specification:BigNoodleTitling"
       x="-105.71246"
       y="89.798988"
       id="text4401"
       sodipodi:linespacing="100%"
       transform="translate(0,982.36218)"><tspan
         sodipodi:role="line"
         id="tspan4403"
         x="-105.71246"
         y="89.798988" /></text>
    <g
       transform="translate(0,982.36218)"
       style="font-size:48px;font-style:normal;font-variant:normal;font-weight:normal;font-stretch:normal;text-align:start;line-height:100%;writing-mode:lr-tb;text-anchor:start;fill:#000000;fill-opacity:1;stroke:none;font-family:BigNoodleTitling;-inkscape-font-specification:BigNoodleTitling"
       id="text4480" />
    <g
       transform="translate(72.808106,992.59387)"
       style="font-size:48px;font-style:normal;font-variant:normal;font-weight:normal;font-stretch:normal;text-align:start;line-height:100%;writing-mode:lr-tb;text-anchor:start;fill:#ffffff;fill-opacity:1;stroke:none;font-family:BigNoodleTitling;-inkscape-font-specification:BigNoodleTitling"
       id="text3387" />
  </g>
</svg>
