<?xml version="1.0" encoding="UTF-8" standalone="no"?>
<!-- Created with Inkscape (http://www.inkscape.org/) -->

<svg
   xmlns:dc="http://purl.org/dc/elements/1.1/"
   xmlns:cc="http://creativecommons.org/ns#"
   xmlns:rdf="http://www.w3.org/1999/02/22-rdf-syntax-ns#"
   xmlns:svg="http://www.w3.org/2000/svg"
   xmlns="http://www.w3.org/2000/svg"
   xmlns:xlink="http://www.w3.org/1999/xlink"
   xmlns:sodipodi="http://sodipodi.sourceforge.net/DTD/sodipodi-0.dtd"
   xmlns:inkscape="http://www.inkscape.org/namespaces/inkscape"
   width="50"
   height="70"
   id="svg2"
   version="1.1"
   inkscape:version="0.47 "
   sodipodi:docname="10.svg">
  <defs
     id="defs4">
    <linearGradient
       id="linearGradient7142">
      <stop
         id="stop7144"
         offset="0"
         style="stop-color:#a1a1a1;stop-opacity:1;" />
      <stop
         id="stop7146"
         offset="1"
         style="stop-color:#000000;stop-opacity:0.50980395;" />
    </linearGradient>
    <g
       style="fill:#ffffff;fill-opacity:1;stroke:none"
       id="lys"
       transform="matrix(0.4,0,0,0.4,236.59,667.12)">
      <path
         id="lys_1"
         style="fill:#ffffff;fill-opacity:1;fill-rule:evenodd;stroke:none"
         transform="translate(-1.35,-0.76)"
         d="m 355.65,280.19 c 0,0 -3.75,-8.1 -8.1,-12.6 -4.36,-4.51 -9.68,-7.58 -11.04,-6.53" />
      <path
         id="lys_2"
         style="fill:#ffffff;fill-opacity:1;fill-rule:evenodd;stroke:none"
         d="m 368.97,258.94 c -2.29,0.08 -5.9,1.92 -7.85,3.87 -2.59,2.6 -3.52,7.58 -3.59,9.44 -0.07,1.86 -1.32,-0.84 -2.19,-2.37 -0.86,-1.54 -1.93,-5.4 -2.22,-3.22 -0.28,2.2 -0.34,3.26 0.07,5.72 0.4,2.45 1.59,7.15 2.56,8.68 l 3.97,3.94 c 1.87,-1.88 3.1,-6.25 3.19,-6.25 l -0.07,9.34 4.35,4.32 c -1.16,-2.37 -1.94,-6.58 -1.63,-10.38 0.32,-3.8 2.3,-8.59 2.06,-10.44 -1.14,-0.4 -2.9,2.58 -5.21,1.88 -0.08,-1.75 0.74,-6.02 1.9,-7.69 1.17,-1.66 4.43,-5.7 6.41,-6.28 -0.36,-0.42 -0.99,-0.59 -1.75,-0.56 z" />
      <path
         id="lys_3"
         style="fill:#ffffff;fill-opacity:1;fill-rule:evenodd;stroke:none"
         transform="translate(-1.35,-0.76)"
         d="m 329.36,254.28 c 9.62,-4.95 19.64,8.3 19.64,8.3 0,0 1.44,-9.25 3.32,-9.36 1.88,-0.11 4.87,7.31 4.87,7.31 0,0 5.76,-7.64 15.72,-7.58 9.97,0.05 11.57,9.13 5.87,9.57 -5.66,0.44 -2.38,-5.15 -2.27,-3.65 0.06,0.17 -5.37,-7.75 -19.15,7.86 -2.03,2.3 -3.94,-8.46 -4.93,-6.09 -1.21,2.88 -0.22,6.26 -1.11,8.53 1.39,1.71 -11.35,-13.84 -16.77,-9.58" />
      <use
         height="1216.1899"
         width="2178.99"
         y="0"
         x="0"
         id="use646"
         style="fill:#ffffff;fill-opacity:1;stroke:none"
         xlink:href="#lys_3"
         transform="matrix(0,1,1,0,74.5,-74.49)" />
      <use
         height="1216.1899"
         width="2178.99"
         y="0"
         x="0"
         id="use648"
         style="fill:#ffffff;fill-opacity:1;stroke:none"
         xlink:href="#lys_1"
         transform="matrix(0,1,1,0,74.9,-74.93)" />
      <use
         height="1216.1899"
         width="2178.99"
         y="0"
         x="0"
         id="use650"
         style="fill:#ffffff;fill-opacity:1;stroke:none"
         xlink:href="#lys_2"
         transform="matrix(0,1,1,0,74.82,-74.82)" />
    </g>
    <g
       style="fill:#ffffff;fill-opacity:1;stroke:none"
       id="lys-6"
       transform="matrix(0.4,0,0,0.4,236.59,667.12)">
      <path
         id="lys_1-8"
         style="fill:#ffffff;fill-opacity:1;fill-rule:evenodd;stroke:none"
         transform="translate(-1.35,-0.76)"
         d="m 355.65,280.19 c 0,0 -3.75,-8.1 -8.1,-12.6 -4.36,-4.51 -9.68,-7.58 -11.04,-6.53" />
      <path
         id="lys_2-5"
         style="fill:#ffffff;fill-opacity:1;fill-rule:evenodd;stroke:none"
         d="m 368.97,258.94 c -2.29,0.08 -5.9,1.92 -7.85,3.87 -2.59,2.6 -3.52,7.58 -3.59,9.44 -0.07,1.86 -1.32,-0.84 -2.19,-2.37 -0.86,-1.54 -1.93,-5.4 -2.22,-3.22 -0.28,2.2 -0.34,3.26 0.07,5.72 0.4,2.45 1.59,7.15 2.56,8.68 l 3.97,3.94 c 1.87,-1.88 3.1,-6.25 3.19,-6.25 l -0.07,9.34 4.35,4.32 c -1.16,-2.37 -1.94,-6.58 -1.63,-10.38 0.32,-3.8 2.3,-8.59 2.06,-10.44 -1.14,-0.4 -2.9,2.58 -5.21,1.88 -0.08,-1.75 0.74,-6.02 1.9,-7.69 1.17,-1.66 4.43,-5.7 6.41,-6.28 -0.36,-0.42 -0.99,-0.59 -1.75,-0.56 z" />
      <path
         id="lys_3-7"
         style="fill:#ffffff;fill-opacity:1;fill-rule:evenodd;stroke:none"
         transform="translate(-1.35,-0.76)"
         d="m 329.36,254.28 c 9.62,-4.95 19.64,8.3 19.64,8.3 0,0 1.44,-9.25 3.32,-9.36 1.88,-0.11 4.87,7.31 4.87,7.31 0,0 5.76,-7.64 15.72,-7.58 9.97,0.05 11.57,9.13 5.87,9.57 -5.66,0.44 -2.38,-5.15 -2.27,-3.65 0.06,0.17 -5.37,-7.75 -19.15,7.86 -2.03,2.3 -3.94,-8.46 -4.93,-6.09 -1.21,2.88 -0.22,6.26 -1.11,8.53 1.39,1.71 -11.35,-13.84 -16.77,-9.58" />
      <use
         height="1216.1899"
         width="2178.99"
         y="0"
         x="0"
         id="use646-6"
         style="fill:#ffffff;fill-opacity:1;stroke:none"
         xlink:href="#lys_3-7"
         transform="matrix(0,1,1,0,74.5,-74.49)" />
      <use
         height="1216.1899"
         width="2178.99"
         y="0"
         x="0"
         id="use648-1"
         style="fill:#ffffff;fill-opacity:1;stroke:none"
         xlink:href="#lys_1-8"
         transform="matrix(0,1,1,0,74.9,-74.93)" />
      <use
         height="1216.1899"
         width="2178.99"
         y="0"
         x="0"
         id="use650-8"
         style="fill:#ffffff;fill-opacity:1;stroke:none"
         xlink:href="#lys_2-5"
         transform="matrix(0,1,1,0,74.82,-74.82)" />
    </g>
    <g
       transform="matrix(0.4,0,0,0.4,236.59,667.12)"
       id="lys-61"
       style="fill:#ffffff;fill-opacity:1;stroke:none">
      <path
         d="m 355.65,280.19 c 0,0 -3.75,-8.1 -8.1,-12.6 -4.36,-4.51 -9.68,-7.58 -11.04,-6.53"
         transform="translate(-1.35,-0.76)"
         style="fill:#ffffff;fill-opacity:1;fill-rule:evenodd;stroke:none"
         id="lys_1-89" />
      <path
         d="m 368.97,258.94 c -2.29,0.08 -5.9,1.92 -7.85,3.87 -2.59,2.6 -3.52,7.58 -3.59,9.44 -0.07,1.86 -1.32,-0.84 -2.19,-2.37 -0.86,-1.54 -1.93,-5.4 -2.22,-3.22 -0.28,2.2 -0.34,3.26 0.07,5.72 0.4,2.45 1.59,7.15 2.56,8.68 l 3.97,3.94 c 1.87,-1.88 3.1,-6.25 3.19,-6.25 l -0.07,9.34 4.35,4.32 c -1.16,-2.37 -1.94,-6.58 -1.63,-10.38 0.32,-3.8 2.3,-8.59 2.06,-10.44 -1.14,-0.4 -2.9,2.58 -5.21,1.88 -0.08,-1.75 0.74,-6.02 1.9,-7.69 1.17,-1.66 4.43,-5.7 6.41,-6.28 -0.36,-0.42 -0.99,-0.59 -1.75,-0.56 z"
         style="fill:#ffffff;fill-opacity:1;fill-rule:evenodd;stroke:none"
         id="lys_2-2" />
      <path
         d="m 329.36,254.28 c 9.62,-4.95 19.64,8.3 19.64,8.3 0,0 1.44,-9.25 3.32,-9.36 1.88,-0.11 4.87,7.31 4.87,7.31 0,0 5.76,-7.64 15.72,-7.58 9.97,0.05 11.57,9.13 5.87,9.57 -5.66,0.44 -2.38,-5.15 -2.27,-3.65 0.06,0.17 -5.37,-7.75 -19.15,7.86 -2.03,2.3 -3.94,-8.46 -4.93,-6.09 -1.21,2.88 -0.22,6.26 -1.11,8.53 1.39,1.71 -11.35,-13.84 -16.77,-9.58"
         transform="translate(-1.35,-0.76)"
         style="fill:#ffffff;fill-opacity:1;fill-rule:evenodd;stroke:none"
         id="lys_3-79" />
      <use
         transform="matrix(0,1,1,0,74.5,-74.49)"
         xlink:href="#lys_3-79"
         style="fill:#ffffff;fill-opacity:1;stroke:none"
         id="use646-5"
         x="0"
         y="0"
         width="2178.99"
         height="1216.1899" />
      <use
         transform="matrix(0,1,1,0,74.9,-74.93)"
         xlink:href="#lys_1-89"
         style="fill:#ffffff;fill-opacity:1;stroke:none"
         id="use648-4"
         x="0"
         y="0"
         width="2178.99"
         height="1216.1899" />
      <use
         transform="matrix(0,1,1,0,74.82,-74.82)"
         xlink:href="#lys_2-2"
         style="fill:#ffffff;fill-opacity:1;stroke:none"
         id="use650-3"
         x="0"
         y="0"
         width="2178.99"
         height="1216.1899" />
    </g>
    <g
       transform="matrix(0.4,0,0,0.4,236.59,667.12)"
       id="lys-9"
       style="fill:#ffffff;fill-opacity:1;stroke:none">
      <path
         d="m 355.65,280.19 c 0,0 -3.75,-8.1 -8.1,-12.6 -4.36,-4.51 -9.68,-7.58 -11.04,-6.53"
         transform="translate(-1.35,-0.76)"
         style="fill:#ffffff;fill-opacity:1;fill-rule:evenodd;stroke:none"
         id="lys_1-2" />
      <path
         d="m 368.97,258.94 c -2.29,0.08 -5.9,1.92 -7.85,3.87 -2.59,2.6 -3.52,7.58 -3.59,9.44 -0.07,1.86 -1.32,-0.84 -2.19,-2.37 -0.86,-1.54 -1.93,-5.4 -2.22,-3.22 -0.28,2.2 -0.34,3.26 0.07,5.72 0.4,2.45 1.59,7.15 2.56,8.68 l 3.97,3.94 c 1.87,-1.88 3.1,-6.25 3.19,-6.25 l -0.07,9.34 4.35,4.32 c -1.16,-2.37 -1.94,-6.58 -1.63,-10.38 0.32,-3.8 2.3,-8.59 2.06,-10.44 -1.14,-0.4 -2.9,2.58 -5.21,1.88 -0.08,-1.75 0.74,-6.02 1.9,-7.69 1.17,-1.66 4.43,-5.7 6.41,-6.28 -0.36,-0.42 -0.99,-0.59 -1.75,-0.56 z"
         style="fill:#ffffff;fill-opacity:1;fill-rule:evenodd;stroke:none"
         id="lys_2-0" />
      <path
         d="m 329.36,254.28 c 9.62,-4.95 19.64,8.3 19.64,8.3 0,0 1.44,-9.25 3.32,-9.36 1.88,-0.11 4.87,7.31 4.87,7.31 0,0 5.76,-7.64 15.72,-7.58 9.97,0.05 11.57,9.13 5.87,9.57 -5.66,0.44 -2.38,-5.15 -2.27,-3.65 0.06,0.17 -5.37,-7.75 -19.15,7.86 -2.03,2.3 -3.94,-8.46 -4.93,-6.09 -1.21,2.88 -0.22,6.26 -1.11,8.53 1.39,1.71 -11.35,-13.84 -16.77,-9.58"
         transform="translate(-1.35,-0.76)"
         style="fill:#ffffff;fill-opacity:1;fill-rule:evenodd;stroke:none"
         id="lys_3-70" />
      <use
         transform="matrix(0,1,1,0,74.5,-74.49)"
         xlink:href="#lys_3-70"
         style="fill:#ffffff;fill-opacity:1;stroke:none"
         id="use646-60"
         x="0"
         y="0"
         width="2178.99"
         height="1216.1899" />
      <use
         transform="matrix(0,1,1,0,74.9,-74.93)"
         xlink:href="#lys_1-2"
         style="fill:#ffffff;fill-opacity:1;stroke:none"
         id="use648-7"
         x="0"
         y="0"
         width="2178.99"
         height="1216.1899" />
      <use
         transform="matrix(0,1,1,0,74.82,-74.82)"
         xlink:href="#lys_2-0"
         style="fill:#ffffff;fill-opacity:1;stroke:none"
         id="use650-0"
         x="0"
         y="0"
         width="2178.99"
         height="1216.1899" />
    </g>
    <g
       transform="matrix(0.4,0,0,0.4,236.59,667.12)"
       id="lys-5"
       style="fill:#ffffff;fill-opacity:1;stroke:none">
      <path
         d="m 355.65,280.19 c 0,0 -3.75,-8.1 -8.1,-12.6 -4.36,-4.51 -9.68,-7.58 -11.04,-6.53"
         transform="translate(-1.35,-0.76)"
         style="fill:#ffffff;fill-opacity:1;fill-rule:evenodd;stroke:none"
         id="lys_1-5" />
      <path
         d="m 368.97,258.94 c -2.29,0.08 -5.9,1.92 -7.85,3.87 -2.59,2.6 -3.52,7.58 -3.59,9.44 -0.07,1.86 -1.32,-0.84 -2.19,-2.37 -0.86,-1.54 -1.93,-5.4 -2.22,-3.22 -0.28,2.2 -0.34,3.26 0.07,5.72 0.4,2.45 1.59,7.15 2.56,8.68 l 3.97,3.94 c 1.87,-1.88 3.1,-6.25 3.19,-6.25 l -0.07,9.34 4.35,4.32 c -1.16,-2.37 -1.94,-6.58 -1.63,-10.38 0.32,-3.8 2.3,-8.59 2.06,-10.44 -1.14,-0.4 -2.9,2.58 -5.21,1.88 -0.08,-1.75 0.74,-6.02 1.9,-7.69 1.17,-1.66 4.43,-5.7 6.41,-6.28 -0.36,-0.42 -0.99,-0.59 -1.75,-0.56 z"
         style="fill:#ffffff;fill-opacity:1;fill-rule:evenodd;stroke:none"
         id="lys_2-50" />
      <path
         d="m 329.36,254.28 c 9.62,-4.95 19.64,8.3 19.64,8.3 0,0 1.44,-9.25 3.32,-9.36 1.88,-0.11 4.87,7.31 4.87,7.31 0,0 5.76,-7.64 15.72,-7.58 9.97,0.05 11.57,9.13 5.87,9.57 -5.66,0.44 -2.38,-5.15 -2.27,-3.65 0.06,0.17 -5.37,-7.75 -19.15,7.86 -2.03,2.3 -3.94,-8.46 -4.93,-6.09 -1.21,2.88 -0.22,6.26 -1.11,8.53 1.39,1.71 -11.35,-13.84 -16.77,-9.58"
         transform="translate(-1.35,-0.76)"
         style="fill:#ffffff;fill-opacity:1;fill-rule:evenodd;stroke:none"
         id="lys_3-9" />
      <use
         transform="matrix(0,1,1,0,74.5,-74.49)"
         xlink:href="#lys_3-9"
         style="fill:#ffffff;fill-opacity:1;stroke:none"
         id="use646-2"
         x="0"
         y="0"
         width="2178.99"
         height="1216.1899" />
      <use
         transform="matrix(0,1,1,0,74.9,-74.93)"
         xlink:href="#lys_1-5"
         style="fill:#ffffff;fill-opacity:1;stroke:none"
         id="use648-8"
         x="0"
         y="0"
         width="2178.99"
         height="1216.1899" />
      <use
         transform="matrix(0,1,1,0,74.82,-74.82)"
         xlink:href="#lys_2-50"
         style="fill:#ffffff;fill-opacity:1;stroke:none"
         id="use650-2"
         x="0"
         y="0"
         width="2178.99"
         height="1216.1899" />
    </g>
    <radialGradient
       inkscape:collect="always"
       xlink:href="#linearGradient7142"
       id="radialGradient3823"
       gradientUnits="userSpaceOnUse"
       gradientTransform="matrix(3.4677513,0.02853153,-0.00586026,2.1318507,-46.913249,-10.690075)"
       cx="20.746119"
       cy="4.9713411"
       fx="20.802559"
       fy="8.2045326"
       r="24.6875" />
    <radialGradient
       inkscape:collect="always"
       xlink:href="#linearGradient7142"
       id="radialGradient3826"
       gradientUnits="userSpaceOnUse"
       gradientTransform="matrix(3.4678167,0.02490806,1.2243669e-7,2.7949367,-47.133417,-35.37225)"
       cx="20.800816"
       cy="37.336853"
       fx="20.728724"
       fy="35.280205"
       r="24.6875" />
  </defs>
  <sodipodi:namedview
     id="base"
     pagecolor="#ffffff"
     bordercolor="#666666"
     borderopacity="1.0"
     inkscape:pageopacity="0.0"
     inkscape:pageshadow="2"
     inkscape:zoom="5.6568542"
     inkscape:cx="25.127473"
     inkscape:cy="36.385951"
     inkscape:document-units="px"
     inkscape:current-layer="layer1"
     showgrid="false"
     showguides="true"
     inkscape:guide-bbox="true"
     inkscape:window-width="1680"
     inkscape:window-height="1028"
     inkscape:window-x="-4"
     inkscape:window-y="-4"
     inkscape:window-maximized="1"
     inkscape:snap-center="true">
    <sodipodi:guide
       orientation="1,0"
       position="25,22"
       id="guide3649" />
    <inkscape:grid
       type="xygrid"
       id="grid3665" />
    <sodipodi:guide
       orientation="1,0"
       position="7,57"
       id="guide3675" />
    <sodipodi:guide
       orientation="1,0"
       position="7,40"
       id="guide4399" />
  </sodipodi:namedview>
  <metadata
     id="metadata7">
    <rdf:RDF>
      <cc:Work
         rdf:about="">
        <dc:format>image/svg+xml</dc:format>
        <dc:type
           rdf:resource="http://purl.org/dc/dcmitype/StillImage" />
        <dc:title />
      </cc:Work>
    </rdf:RDF>
  </metadata>
  <g
     inkscape:label="Ebene 1"
     inkscape:groupmode="layer"
     id="layer1"
     transform="translate(0,-982.36218)">
    <rect
       style="fill:#ffffff;fill-opacity:1;fill-rule:evenodd;stroke:none"
       id="rect4405"
       width="48.979172"
       height="68.979172"
       x="0.51041466"
       y="982.74762"
       rx="4.4895864"
       ry="4.4895606" />
    <path
       style="fill:#000000;fill-opacity:1;fill-rule:evenodd;stroke:none"
       d="M 5 0.375 C 2.5127692 0.375 0.5 2.3877834 0.5 4.875 L 0.5 64.875 C 0.5 67.362217 2.5127692 69.375 5 69.375 L 45 69.375 C 47.487231 69.375 49.5 67.362217 49.5 64.875 L 49.5 4.875 C 49.5 2.3877834 47.487231 0.375 45 0.375 L 5 0.375 z M 2.71875 2 L 11.28125 2 L 11.28125 4.65625 L 8.46875 4.65625 L 8.46875 24 L 5.53125 24 L 5.53125 4.65625 L 2.71875 4.65625 L 2.71875 2 z M 7 24.09375 L 7.25 24.4375 C 7.57158 24.8955 7.998479 25.3914 9.0625 26.375 C 11.27152 28.4169 11.888083 29.23235 12 30.40625 C 12.121456 31.68025 10.968713 32.78425 9.53125 32.78125 C 8.837123 32.78125 8.204785 32.53795 7.71875 32.09375 L 7.4375 31.84375 L 7.46875 32.09375 C 7.692952 33.64635 8.174226 34.8492 8.8125 35.4375 C 9.063313 35.6687 9.186401 35.7236 9.46875 35.8125 C 9.4790119 35.81575 9.463325 35.84082 9.46875 35.84375 C 9.3168769 35.868594 8.6624185 35.90475 7 35.90625 C 4.395315 35.90625 4.348679 35.8971 4.59375 35.8125 C 5.445107 35.5182 6.05436 34.49775 6.40625 32.84375 C 6.46981 32.54495 6.543485 32.1965 6.5625 32.0625 L 6.59375 31.84375 L 6.3125 32.09375 C 4.880363 33.40265 2.44016 32.75655 2.03125 30.96875 C 1.925328 30.50575 2.072044 29.81945 2.375 29.21875 C 2.743199 28.48865 3.287541 27.87775 4.75 26.53125 C 5.992899 25.38685 6.468193 24.8949 6.78125 24.4375 L 7 24.09375 z M 18.28125 30.78125 L 31.71875 30.78125 L 31.71875 34.9375 L 27.3125 34.9375 L 27.3125 65.21875 L 22.6875 65.21875 L 22.6875 34.9375 L 18.28125 34.9375 L 18.28125 30.78125 z "
       transform="translate(0,982.36218)"
       id="rect2816" />
    <path
       style="opacity:1;fill:url(#radialGradient3826);fill-opacity:1;fill-rule:evenodd;stroke:none"
       d="M 41.0625 0.125 C 37.405487 0.090788513 32.254066 0.5 25 0.5 C -3.8912665 2.3125 0.18750001 -7.6495918 0.5 35 C 1.0303301 75.007674 -5.2374603 69.5 25 69.5 C 54.437523 69.5 49.5 75.961549 49.5 35 C 49.5 4.278431 52.033538 0.22763446 41.0625 0.125 z M 2.71875 2 L 11.28125 2 L 11.28125 4.65625 L 8.46875 4.65625 L 8.46875 24 L 5.53125 24 L 5.53125 4.65625 L 2.71875 4.65625 L 2.71875 2 z M 7 24.09375 L 7.25 24.4375 C 7.57158 24.8955 7.998479 25.3914 9.0625 26.375 C 11.27152 28.4169 11.888083 29.23235 12 30.40625 C 12.121456 31.68025 10.968713 32.78425 9.53125 32.78125 C 8.837123 32.78125 8.204785 32.53795 7.71875 32.09375 L 7.4375 31.84375 L 7.46875 32.09375 C 7.692952 33.64635 8.174226 34.8492 8.8125 35.4375 C 9.063313 35.6687 9.186401 35.7236 9.46875 35.8125 C 9.4790119 35.81575 9.463325 35.84082 9.46875 35.84375 C 9.3168769 35.868594 8.6624185 35.90475 7 35.90625 C 4.395315 35.90625 4.348679 35.8971 4.59375 35.8125 C 5.445107 35.5182 6.05436 34.49775 6.40625 32.84375 C 6.46981 32.54495 6.543485 32.1965 6.5625 32.0625 L 6.59375 31.84375 L 6.3125 32.09375 C 4.880363 33.40265 2.44016 32.75655 2.03125 30.96875 C 1.925328 30.50575 2.072044 29.81945 2.375 29.21875 C 2.743199 28.48865 3.287541 27.87775 4.75 26.53125 C 5.992899 25.38685 6.468193 24.8949 6.78125 24.4375 L 7 24.09375 z M 18.28125 30.78125 L 31.71875 30.78125 L 31.71875 34.9375 L 27.3125 34.9375 L 27.3125 65.21875 L 22.6875 65.21875 L 22.6875 34.9375 L 18.28125 34.9375 L 18.28125 30.78125 z "
       transform="translate(0,982.36218)"
       id="path6176" />
    <path
       style="opacity:1;fill:url(#radialGradient3823);fill-opacity:1;fill-rule:evenodd;stroke:none"
       d="M 41.0625 0.125 C 37.405487 0.090788513 32.254066 0.5 25 0.5 C -3.8912665 2.3125 0.18750001 -7.6495918 0.5 35 C 1.0303301 75.007674 -5.2374603 69.5 25 69.5 C 54.437523 69.5 49.5 75.961549 49.5 35 C 49.5 4.278431 52.033538 0.22763446 41.0625 0.125 z M 2.71875 2 L 11.28125 2 L 11.28125 4.65625 L 8.46875 4.65625 L 8.46875 24 L 5.53125 24 L 5.53125 4.65625 L 2.71875 4.65625 L 2.71875 2 z M 7 24.09375 L 7.25 24.4375 C 7.57158 24.8955 7.998479 25.3914 9.0625 26.375 C 11.27152 28.4169 11.888083 29.23235 12 30.40625 C 12.121456 31.68025 10.968713 32.78425 9.53125 32.78125 C 8.837123 32.78125 8.204785 32.53795 7.71875 32.09375 L 7.4375 31.84375 L 7.46875 32.09375 C 7.692952 33.64635 8.174226 34.8492 8.8125 35.4375 C 9.063313 35.6687 9.186401 35.7236 9.46875 35.8125 C 9.4790119 35.81575 9.463325 35.84082 9.46875 35.84375 C 9.3168769 35.868594 8.6624185 35.90475 7 35.90625 C 4.395315 35.90625 4.348679 35.8971 4.59375 35.8125 C 5.445107 35.5182 6.05436 34.49775 6.40625 32.84375 C 6.46981 32.54495 6.543485 32.1965 6.5625 32.0625 L 6.59375 31.84375 L 6.3125 32.09375 C 4.880363 33.40265 2.44016 32.75655 2.03125 30.96875 C 1.925328 30.50575 2.072044 29.81945 2.375 29.21875 C 2.743199 28.48865 3.287541 27.87775 4.75 26.53125 C 5.992899 25.38685 6.468193 24.8949 6.78125 24.4375 L 7 24.09375 z M 18.28125 30.78125 L 31.71875 30.78125 L 31.71875 34.9375 L 27.3125 34.9375 L 27.3125 65.21875 L 22.6875 65.21875 L 22.6875 34.9375 L 18.28125 34.9375 L 18.28125 30.78125 z "
       transform="translate(0,982.36218)"
       id="path6103" />
    <text
       xml:space="preserve"
       style="font-size:48px;font-style:normal;font-variant:normal;font-weight:normal;font-stretch:normal;text-align:start;line-height:100%;writing-mode:lr-tb;text-anchor:start;fill:#000000;fill-opacity:1;stroke:none;font-family:BigNoodleTitling;-inkscape-font-specification:BigNoodleTitling"
       x="-143.54268"
       y="40.655067"
       id="text3638"
       sodipodi:linespacing="100%"
       transform="translate(0,982.36218)"><tspan
         sodipodi:role="line"
         id="tspan3640"
         x="-143.54268"
         y="40.655067" /></text>
    <rect
       ry="4.4895606"
       rx="4.4895864"
       y="982.87262"
       x="0.51041466"
       height="68.979172"
       width="48.979172"
       id="rect3596"
       style="fill:none;fill-opacity:1;fill-rule:evenodd;stroke:#000000;stroke-width:1.02082932000000000;stroke-linecap:round;stroke-linejoin:miter;stroke-miterlimit:4;stroke-opacity:1;stroke-dasharray:none" />
    <text
       xml:space="preserve"
       style="font-size:48px;font-style:normal;font-variant:normal;font-weight:normal;font-stretch:normal;text-align:start;line-height:100%;writing-mode:lr-tb;text-anchor:start;fill:#000000;fill-opacity:1;stroke:none;font-family:BigNoodleTitling;-inkscape-font-specification:BigNoodleTitling"
       x="-105.71246"
       y="89.798988"
       id="text4401"
       sodipodi:linespacing="100%"
       transform="translate(0,982.36218)"><tspan
         sodipodi:role="line"
         id="tspan4403"
         x="-105.71246"
         y="89.798988" /></text>
    <g
       transform="translate(0,982.36218)"
       style="font-size:48px;font-style:normal;font-variant:normal;font-weight:normal;font-stretch:normal;text-align:start;line-height:100%;writing-mode:lr-tb;text-anchor:start;fill:#000000;fill-opacity:1;stroke:none;font-family:BigNoodleTitling;-inkscape-font-specification:BigNoodleTitling"
       id="text4480" />
    <text
       xml:space="preserve"
       style="font-size:48px;font-style:normal;font-variant:normal;font-weight:normal;font-stretch:normal;text-align:start;line-height:100%;writing-mode:lr-tb;text-anchor:start;fill:#000000;fill-opacity:1;stroke:none;font-family:BigNoodleTitling;-inkscape-font-specification:BigNoodleTitling"
       x="-54.875"
       y="57.375"
       id="text3259"
       sodipodi:linespacing="100%"
       transform="translate(0,982.36218)"><tspan
         sodipodi:role="line"
         id="tspan3261" /></text>
    <g
       id="layer1-1"
       inkscape:label="Ebene 1"
       transform="translate(-52.375001,-2.6041813e-5)">
      <text
         transform="translate(0,982.36218)"
         sodipodi:linespacing="100%"
         id="text3638-3"
         y="40.655067"
         x="-143.54268"
         style="font-size:48px;font-style:normal;font-variant:normal;font-weight:normal;font-stretch:normal;text-align:start;line-height:100%;writing-mode:lr-tb;text-anchor:start;fill:#000000;fill-opacity:1;stroke:none;font-family:BigNoodleTitling;-inkscape-font-specification:BigNoodleTitling"
         xml:space="preserve"><tspan
           y="40.655067"
           x="-143.54268"
           id="tspan3640-2"
           sodipodi:role="line" /></text>
      <text
         transform="translate(0,982.36218)"
         sodipodi:linespacing="100%"
         id="text4401-5"
         y="89.798988"
         x="-105.71246"
         style="font-size:48px;font-style:normal;font-variant:normal;font-weight:normal;font-stretch:normal;text-align:start;line-height:100%;writing-mode:lr-tb;text-anchor:start;fill:#000000;fill-opacity:1;stroke:none;font-family:BigNoodleTitling;-inkscape-font-specification:BigNoodleTitling"
         xml:space="preserve"><tspan
           y="89.798988"
           x="-105.71246"
           id="tspan4403-3"
           sodipodi:role="line" /></text>
      <g
         id="text4480-5"
         style="font-size:48px;font-style:normal;font-variant:normal;font-weight:normal;font-stretch:normal;text-align:start;line-height:100%;writing-mode:lr-tb;text-anchor:start;fill:#000000;fill-opacity:1;stroke:none;font-family:BigNoodleTitling;-inkscape-font-specification:BigNoodleTitling"
         transform="translate(0,982.36218)" />
      <text
         transform="translate(0,982.36218)"
         sodipodi:linespacing="100%"
         id="text3259-1"
         y="57.375"
         x="-54.875"
         style="font-size:48px;font-style:normal;font-variant:normal;font-weight:normal;font-stretch:normal;text-align:start;line-height:100%;writing-mode:lr-tb;text-anchor:start;fill:#000000;fill-opacity:1;stroke:none;font-family:BigNoodleTitling;-inkscape-font-specification:BigNoodleTitling"
         xml:space="preserve"><tspan
           id="tspan3261-2"
           sodipodi:role="line"
           x="-54.875"
           y="57.375" /></text>
      <g
         id="text3829"
         style="font-size:48px;font-style:normal;font-variant:normal;font-weight:normal;font-stretch:normal;text-align:start;line-height:100%;writing-mode:lr-tb;text-anchor:start;fill:#000000;fill-opacity:1;stroke:none;font-family:BigNoodleTitling;-inkscape-font-specification:BigNoodleTitling" />
      <g
         transform="matrix(0.63835837,0,0,0.63835837,-8.4991504,337.62185)"
         style="font-size:48px;font-style:normal;font-variant:normal;font-weight:normal;font-stretch:normal;text-align:start;line-height:100%;writing-mode:lr-tb;text-anchor:start;fill:#000000;fill-opacity:1;stroke:none;font-family:BigNoodleTitling;-inkscape-font-specification:BigNoodleTitling"
         id="g3836" />
      <g
         style="font-size:48px;font-style:normal;font-variant:normal;font-weight:normal;font-stretch:normal;text-align:start;line-height:100%;writing-mode:lr-tb;text-anchor:start;fill:#000000;fill-opacity:1;stroke:none;font-family:BigNoodleTitling;-inkscape-font-specification:BigNoodleTitling"
         id="g3840" />
      <g
         id="g3844"
         style="font-size:48px;font-style:normal;font-variant:normal;font-weight:normal;font-stretch:normal;text-align:start;line-height:100%;writing-mode:lr-tb;text-anchor:start;fill:#000000;fill-opacity:1;stroke:none;font-family:BigNoodleTitling;-inkscape-font-specification:BigNoodleTitling" />
    </g>
    <g
       transform="translate(47.624463,975.56849)"
       style="font-size:48px;font-style:normal;font-variant:normal;font-weight:normal;font-stretch:normal;text-align:start;line-height:100%;writing-mode:lr-tb;text-anchor:start;fill:#000000;fill-opacity:1;stroke:none;font-family:BigNoodleTitling;-inkscape-font-specification:BigNoodleTitling"
       id="text3686" />
    <g
       transform="translate(41.79956,995.59387)"
       style="font-size:48px;font-style:normal;font-variant:normal;font-weight:normal;font-stretch:normal;text-align:start;line-height:100%;writing-mode:lr-tb;text-anchor:start;fill:#000000;fill-opacity:1;stroke:none;font-family:BigNoodleTitling;-inkscape-font-specification:BigNoodleTitling"
       id="text3797" />
    <g
       id="g3804"
       style="font-size:48px;font-style:normal;font-variant:normal;font-weight:normal;font-stretch:normal;text-align:start;line-height:100%;writing-mode:lr-tb;text-anchor:start;fill:#000000;fill-opacity:1;stroke:none;font-family:BigNoodleTitling;-inkscape-font-specification:BigNoodleTitling"
       transform="matrix(0.63835876,0,0,0.63835876,17.724147,973.16752)" />
  </g>
</svg>
