<?xml version="1.0" encoding="UTF-8" standalone="no"?>
<!-- Created with Inkscape (http://www.inkscape.org/) -->

<svg
   xmlns:dc="http://purl.org/dc/elements/1.1/"
   xmlns:cc="http://creativecommons.org/ns#"
   xmlns:rdf="http://www.w3.org/1999/02/22-rdf-syntax-ns#"
   xmlns:svg="http://www.w3.org/2000/svg"
   xmlns="http://www.w3.org/2000/svg"
   xmlns:xlink="http://www.w3.org/1999/xlink"
   xmlns:sodipodi="http://sodipodi.sourceforge.net/DTD/sodipodi-0.dtd"
   xmlns:inkscape="http://www.inkscape.org/namespaces/inkscape"
   width="50"
   height="70"
   id="svg2"
   version="1.1"
   inkscape:version="0.47 "
   sodipodi:docname="3.svg">
  <defs
     id="defs4">
    <linearGradient
       id="linearGradient6105">
      <stop
         style="stop-color:#3cbb26;stop-opacity:1;"
         offset="0"
         id="stop6107" />
      <stop
         style="stop-color:#000000;stop-opacity:0.50980395;"
         offset="1"
         id="stop6109" />
    </linearGradient>
    <g
       style="fill:#ffffff;fill-opacity:1;stroke:none"
       id="lys"
       transform="matrix(0.4,0,0,0.4,236.59,667.12)">
      <path
         id="lys_1"
         style="fill:#ffffff;fill-opacity:1;fill-rule:evenodd;stroke:none"
         transform="translate(-1.35,-0.76)"
         d="m 355.65,280.19 c 0,0 -3.75,-8.1 -8.1,-12.6 -4.36,-4.51 -9.68,-7.58 -11.04,-6.53" />
      <path
         id="lys_2"
         style="fill:#ffffff;fill-opacity:1;fill-rule:evenodd;stroke:none"
         d="m 368.97,258.94 c -2.29,0.08 -5.9,1.92 -7.85,3.87 -2.59,2.6 -3.52,7.58 -3.59,9.44 -0.07,1.86 -1.32,-0.84 -2.19,-2.37 -0.86,-1.54 -1.93,-5.4 -2.22,-3.22 -0.28,2.2 -0.34,3.26 0.07,5.72 0.4,2.45 1.59,7.15 2.56,8.68 l 3.97,3.94 c 1.87,-1.88 3.1,-6.25 3.19,-6.25 l -0.07,9.34 4.35,4.32 c -1.16,-2.37 -1.94,-6.58 -1.63,-10.38 0.32,-3.8 2.3,-8.59 2.06,-10.44 -1.14,-0.4 -2.9,2.58 -5.21,1.88 -0.08,-1.75 0.74,-6.02 1.9,-7.69 1.17,-1.66 4.43,-5.7 6.41,-6.28 -0.36,-0.42 -0.99,-0.59 -1.75,-0.56 z" />
      <path
         id="lys_3"
         style="fill:#ffffff;fill-opacity:1;fill-rule:evenodd;stroke:none"
         transform="translate(-1.35,-0.76)"
         d="m 329.36,254.28 c 9.62,-4.95 19.64,8.3 19.64,8.3 0,0 1.44,-9.25 3.32,-9.36 1.88,-0.11 4.87,7.31 4.87,7.31 0,0 5.76,-7.64 15.72,-7.58 9.97,0.05 11.57,9.13 5.87,9.57 -5.66,0.44 -2.38,-5.15 -2.27,-3.65 0.06,0.17 -5.37,-7.75 -19.15,7.86 -2.03,2.3 -3.94,-8.46 -4.93,-6.09 -1.21,2.88 -0.22,6.26 -1.11,8.53 1.39,1.71 -11.35,-13.84 -16.77,-9.58" />
      <use
         height="1216.1899"
         width="2178.99"
         y="0"
         x="0"
         id="use646"
         style="fill:#ffffff;fill-opacity:1;stroke:none"
         xlink:href="#lys_3"
         transform="matrix(0,1,1,0,74.5,-74.49)" />
      <use
         height="1216.1899"
         width="2178.99"
         y="0"
         x="0"
         id="use648"
         style="fill:#ffffff;fill-opacity:1;stroke:none"
         xlink:href="#lys_1"
         transform="matrix(0,1,1,0,74.9,-74.93)" />
      <use
         height="1216.1899"
         width="2178.99"
         y="0"
         x="0"
         id="use650"
         style="fill:#ffffff;fill-opacity:1;stroke:none"
         xlink:href="#lys_2"
         transform="matrix(0,1,1,0,74.82,-74.82)" />
    </g>
    <radialGradient
       inkscape:collect="always"
       xlink:href="#linearGradient6105"
       id="radialGradient3337"
       gradientUnits="userSpaceOnUse"
       gradientTransform="matrix(3.4677513,0.02853153,-0.00586026,2.1318507,-46.913249,-10.690075)"
       cx="20.746119"
       cy="4.9713411"
       fx="20.802559"
       fy="8.2045326"
       r="24.6875" />
    <radialGradient
       inkscape:collect="always"
       xlink:href="#linearGradient6105"
       id="radialGradient3340"
       gradientUnits="userSpaceOnUse"
       gradientTransform="matrix(3.4678167,0.02490806,1.2243669e-7,2.7949367,-47.133417,-35.37225)"
       cx="20.800816"
       cy="37.336853"
       fx="20.728724"
       fy="35.280205"
       r="24.6875" />
  </defs>
  <sodipodi:namedview
     id="base"
     pagecolor="#ffffff"
     bordercolor="#666666"
     borderopacity="1.0"
     inkscape:pageopacity="0.0"
     inkscape:pageshadow="2"
     inkscape:zoom="2"
     inkscape:cx="-97.384254"
     inkscape:cy="41.996498"
     inkscape:document-units="px"
     inkscape:current-layer="layer1"
     showgrid="false"
     showguides="true"
     inkscape:guide-bbox="true"
     inkscape:window-width="1680"
     inkscape:window-height="1028"
     inkscape:window-x="-4"
     inkscape:window-y="-4"
     inkscape:window-maximized="1"
     inkscape:snap-center="true">
    <sodipodi:guide
       orientation="1,0"
       position="25,22"
       id="guide3649" />
    <inkscape:grid
       type="xygrid"
       id="grid3665" />
    <sodipodi:guide
       orientation="1,0"
       position="7,57"
       id="guide3675" />
    <sodipodi:guide
       orientation="1,0"
       position="7,40"
       id="guide4399" />
  </sodipodi:namedview>
  <metadata
     id="metadata7">
    <rdf:RDF>
      <cc:Work
         rdf:about="">
        <dc:format>image/svg+xml</dc:format>
        <dc:type
           rdf:resource="http://purl.org/dc/dcmitype/StillImage" />
        <dc:title />
      </cc:Work>
    </rdf:RDF>
  </metadata>
  <g
     inkscape:label="Ebene 1"
     inkscape:groupmode="layer"
     id="layer1"
     transform="translate(0,-982.36218)">
    <rect
       style="fill:#ffffff;fill-opacity:1;fill-rule:evenodd;stroke:none"
       id="rect4405"
       width="48.979172"
       height="68.979172"
       x="0.51041466"
       y="982.74762"
       rx="4.4895864"
       ry="4.4895606" />
    <path
       style="fill:#008000;fill-opacity:1;fill-rule:evenodd;stroke:none"
       d="M 5 0.375 C 2.5127692 0.375 0.5 2.3877834 0.5 4.875 L 0.5 64.875 C 0.5 67.362217 2.5127692 69.375 5 69.375 L 45 69.375 C 47.487231 69.375 49.5 67.362217 49.5 64.875 L 49.5 4.875 C 49.5 2.3877834 47.487231 0.375 45 0.375 L 5 0.375 z M 5.96875 2 L 7.6875 2 C 10.037074 2 11.187491 3.26905 11.1875 5.78125 L 11.1875 10.15625 C 11.187491 11.54515 10.568555 12.3808 9.28125 12.6875 C 10.81355 13.0959 11.56249 14.01885 11.5625 15.46875 L 11.5625 20.25 C 11.56249 22.7423 10.380823 24 8.03125 24 L 6.0625 24 C 3.712914 24 2.531248 22.7423 2.53125 20.25 L 2.53125 18.84375 L 5.46875 18.84375 L 5.46875 20.0625 C 5.468745 20.9203 5.848867 21.34375 6.625 21.34375 L 7.3125 21.34375 C 8.19086 21.34375 8.624993 20.9203 8.625 20.0625 L 8.625 15.5 C 8.624993 14.54 8.050177 14.0625 6.90625 14.0625 L 6.125 14.0625 L 6.125 11.59375 L 6.53125 11.59375 C 7.675178 11.59385 8.249993 11.11625 8.25 10.15625 L 8.25 5.96875 C 8.249993 5.11095 7.81586 4.6875 6.9375 4.6875 L 6.53125 4.6875 C 5.755117 4.6875 5.374996 5.11095 5.375 5.96875 L 5.375 8.21875 L 2.4375 8.21875 L 2.4375 5.78125 C 2.437499 3.26905 3.619789 2 5.96875 2 z M 6.875 24.84375 C 7.0614236 24.832619 7.2478605 24.837025 7.4375 24.875 C 7.897468 24.967 8.219399 25.1592 8.5625 25.5 C 8.997419 25.9322 9.1875 26.37735 9.1875 26.96875 C 9.1875 27.54365 9.035561 27.9553 8.59375 28.4375 C 8.181104 28.8878 8.002347 29.14435 7.78125 29.59375 C 7.67539 29.80895 7.59375 29.9854 7.59375 30 C 7.59375 30.054 7.828426 29.8725 8.1875 29.5625 C 8.606582 29.2006 8.944438 29.0144 9.3125 28.9375 C 10.538931 28.6811 11.718826 29.41105 11.96875 30.59375 C 12.117708 31.29865 11.862636 32.0421 11.3125 32.5625 C 10.457579 33.3711 9.109905 33.3358 8.25 32.5 C 7.981985 32.2395 7.645776 31.9814 7.4375 31.875 L 7.28125 31.8125 L 7.3125 32.0625 C 7.3839 32.7594 7.601034 33.4698 7.875 34 C 8.001301 34.2444 8.095191 34.4069 8.3125 34.625 C 8.608561 34.9221 8.811196 35.0486 9.125 35.125 C 9.270662 35.16 8.893606 35.15625 7 35.15625 C 5.08429 35.15625 4.727638 35.159 4.875 35.125 C 5.56811 34.953 6.115168 34.29175 6.4375 33.28125 C 6.538893 32.96335 6.649705 32.4074 6.6875 32.0625 L 6.71875 31.84375 L 6.625 31.875 C 6.43674 31.974 6.171739 32.1651 6 32.3125 C 5.44615 32.7879 5.11015 33.00415 4.6875 33.09375 C 3.690478 33.30495 2.662237 32.8166 2.21875 31.9375 C 1.79414 31.0957 1.988105 30.13025 2.6875 29.46875 C 3.105159 29.07365 3.59526 28.8762 4.1875 28.875 C 4.809404 28.875 5.204288 29.0548 5.8125 29.5625 C 6.034238 29.7475 6.259455 29.9094 6.3125 29.9375 L 6.40625 30 L 6.375 29.875 C 6.222731 29.4434 5.941504 29.03515 5.5 28.53125 C 4.990646 27.94985 4.842939 27.58625 4.84375 26.96875 C 4.844473 26.41445 5.007932 25.9548 5.375 25.5625 C 5.7815547 25.127875 6.3157292 24.877144 6.875 24.84375 z M 23.375 30.78125 L 26.0625 30.78125 C 29.74315 30.78125 31.562485 32.72075 31.5625 36.65625 L 31.5625 43.53125 C 31.562485 45.70705 30.579087 47.05085 28.5625 47.53125 C 30.962876 48.17095 32.156234 49.6036 32.15625 51.875 L 32.15625 59.375 C 32.156234 63.2793 30.305649 65.21875 26.625 65.21875 L 23.5 65.21875 C 19.819332 65.21875 17.999998 63.2793 18 59.375 L 18 57.15625 L 22.59375 57.15625 L 22.59375 59.03125 C 22.593743 60.37495 23.221673 61.0625 24.4375 61.0625 L 25.46875 61.0625 C 26.844716 61.0625 27.531239 60.37495 27.53125 59.03125 L 27.53125 51.9375 C 27.531239 50.4336 26.635732 49.6875 24.84375 49.6875 L 23.59375 49.6875 L 23.59375 45.78125 L 24.28125 45.78125 C 26.073233 45.78135 26.968739 45.03515 26.96875 43.53125 L 26.96875 37 C 26.968739 35.6562 26.282216 35.0001 24.90625 35 L 24.28125 35 C 23.065423 35.0001 22.468744 35.6562 22.46875 37 L 22.46875 40.5 L 17.84375 40.5 L 17.84375 36.65625 C 17.843749 32.72075 19.695309 30.78125 23.375 30.78125 z "
       transform="translate(0,982.36218)"
       id="rect2816" />
    <path
       style="opacity:1;fill:url(#radialGradient3340);fill-opacity:1;fill-rule:evenodd;stroke:none"
       d="M 41.0625 0.125 C 37.405487 0.090788513 32.254066 0.5 25 0.5 C -3.8912665 2.3125 0.18750001 -7.6495918 0.5 35 C 1.0303301 75.007674 -5.2374603 69.5 25 69.5 C 54.437523 69.5 49.5 75.961549 49.5 35 C 49.5 4.278431 52.033538 0.22763446 41.0625 0.125 z M 5.96875 2 L 7.6875 2 C 10.037074 2 11.187491 3.26905 11.1875 5.78125 L 11.1875 10.15625 C 11.187491 11.54515 10.568555 12.3808 9.28125 12.6875 C 10.81355 13.0959 11.56249 14.01885 11.5625 15.46875 L 11.5625 20.25 C 11.56249 22.7423 10.380823 24 8.03125 24 L 6.0625 24 C 3.712914 24 2.531248 22.7423 2.53125 20.25 L 2.53125 18.84375 L 5.46875 18.84375 L 5.46875 20.0625 C 5.468745 20.9203 5.848867 21.34375 6.625 21.34375 L 7.3125 21.34375 C 8.19086 21.34375 8.624993 20.9203 8.625 20.0625 L 8.625 15.5 C 8.624993 14.54 8.050177 14.0625 6.90625 14.0625 L 6.125 14.0625 L 6.125 11.59375 L 6.53125 11.59375 C 7.675178 11.59385 8.249993 11.11625 8.25 10.15625 L 8.25 5.96875 C 8.249993 5.11095 7.81586 4.6875 6.9375 4.6875 L 6.53125 4.6875 C 5.755117 4.6875 5.374996 5.11095 5.375 5.96875 L 5.375 8.21875 L 2.4375 8.21875 L 2.4375 5.78125 C 2.437499 3.26905 3.619789 2 5.96875 2 z M 6.875 24.84375 C 7.0614236 24.832619 7.2478605 24.837025 7.4375 24.875 C 7.897468 24.967 8.219399 25.1592 8.5625 25.5 C 8.997419 25.9322 9.1875 26.37735 9.1875 26.96875 C 9.1875 27.54365 9.035561 27.9553 8.59375 28.4375 C 8.181104 28.8878 8.002347 29.14435 7.78125 29.59375 C 7.67539 29.80895 7.59375 29.9854 7.59375 30 C 7.59375 30.054 7.828426 29.8725 8.1875 29.5625 C 8.606582 29.2006 8.944438 29.0144 9.3125 28.9375 C 10.538931 28.6811 11.718826 29.41105 11.96875 30.59375 C 12.117708 31.29865 11.862636 32.0421 11.3125 32.5625 C 10.457579 33.3711 9.109905 33.3358 8.25 32.5 C 7.981985 32.2395 7.645776 31.9814 7.4375 31.875 L 7.28125 31.8125 L 7.3125 32.0625 C 7.3839 32.7594 7.601034 33.4698 7.875 34 C 8.001301 34.2444 8.095191 34.4069 8.3125 34.625 C 8.608561 34.9221 8.811196 35.0486 9.125 35.125 C 9.270662 35.16 8.893606 35.15625 7 35.15625 C 5.08429 35.15625 4.727638 35.159 4.875 35.125 C 5.56811 34.953 6.115168 34.29175 6.4375 33.28125 C 6.538893 32.96335 6.649705 32.4074 6.6875 32.0625 L 6.71875 31.84375 L 6.625 31.875 C 6.43674 31.974 6.171739 32.1651 6 32.3125 C 5.44615 32.7879 5.11015 33.00415 4.6875 33.09375 C 3.690478 33.30495 2.662237 32.8166 2.21875 31.9375 C 1.79414 31.0957 1.988105 30.13025 2.6875 29.46875 C 3.105159 29.07365 3.59526 28.8762 4.1875 28.875 C 4.809404 28.875 5.204288 29.0548 5.8125 29.5625 C 6.034238 29.7475 6.259455 29.9094 6.3125 29.9375 L 6.40625 30 L 6.375 29.875 C 6.222731 29.4434 5.941504 29.03515 5.5 28.53125 C 4.990646 27.94985 4.842939 27.58625 4.84375 26.96875 C 4.844473 26.41445 5.007932 25.9548 5.375 25.5625 C 5.7815547 25.127875 6.3157292 24.877144 6.875 24.84375 z M 23.375 30.78125 L 26.0625 30.78125 C 29.74315 30.78125 31.562485 32.72075 31.5625 36.65625 L 31.5625 43.53125 C 31.562485 45.70705 30.579087 47.05085 28.5625 47.53125 C 30.962876 48.17095 32.156234 49.6036 32.15625 51.875 L 32.15625 59.375 C 32.156234 63.2793 30.305649 65.21875 26.625 65.21875 L 23.5 65.21875 C 19.819332 65.21875 17.999998 63.2793 18 59.375 L 18 57.15625 L 22.59375 57.15625 L 22.59375 59.03125 C 22.593743 60.37495 23.221673 61.0625 24.4375 61.0625 L 25.46875 61.0625 C 26.844716 61.0625 27.531239 60.37495 27.53125 59.03125 L 27.53125 51.9375 C 27.531239 50.4336 26.635732 49.6875 24.84375 49.6875 L 23.59375 49.6875 L 23.59375 45.78125 L 24.28125 45.78125 C 26.073233 45.78135 26.968739 45.03515 26.96875 43.53125 L 26.96875 37 C 26.968739 35.6562 26.282216 35.0001 24.90625 35 L 24.28125 35 C 23.065423 35.0001 22.468744 35.6562 22.46875 37 L 22.46875 40.5 L 17.84375 40.5 L 17.84375 36.65625 C 17.843749 32.72075 19.695309 30.78125 23.375 30.78125 z "
       id="path6176"
       transform="translate(0,982.36218)" />
    <path
       style="opacity:1;fill:url(#radialGradient3337);fill-opacity:1;fill-rule:evenodd;stroke:none"
       d="M 41.0625 0.125 C 37.405487 0.090788513 32.254066 0.5 25 0.5 C -3.8912665 2.3125 0.18750001 -7.6495918 0.5 35 C 1.0303301 75.007674 -5.2374603 69.5 25 69.5 C 54.437523 69.5 49.5 75.961549 49.5 35 C 49.5 4.278431 52.033538 0.22763446 41.0625 0.125 z M 5.96875 2 L 7.6875 2 C 10.037074 2 11.187491 3.26905 11.1875 5.78125 L 11.1875 10.15625 C 11.187491 11.54515 10.568555 12.3808 9.28125 12.6875 C 10.81355 13.0959 11.56249 14.01885 11.5625 15.46875 L 11.5625 20.25 C 11.56249 22.7423 10.380823 24 8.03125 24 L 6.0625 24 C 3.712914 24 2.531248 22.7423 2.53125 20.25 L 2.53125 18.84375 L 5.46875 18.84375 L 5.46875 20.0625 C 5.468745 20.9203 5.848867 21.34375 6.625 21.34375 L 7.3125 21.34375 C 8.19086 21.34375 8.624993 20.9203 8.625 20.0625 L 8.625 15.5 C 8.624993 14.54 8.050177 14.0625 6.90625 14.0625 L 6.125 14.0625 L 6.125 11.59375 L 6.53125 11.59375 C 7.675178 11.59385 8.249993 11.11625 8.25 10.15625 L 8.25 5.96875 C 8.249993 5.11095 7.81586 4.6875 6.9375 4.6875 L 6.53125 4.6875 C 5.755117 4.6875 5.374996 5.11095 5.375 5.96875 L 5.375 8.21875 L 2.4375 8.21875 L 2.4375 5.78125 C 2.437499 3.26905 3.619789 2 5.96875 2 z M 6.875 24.84375 C 7.0614236 24.832619 7.2478605 24.837025 7.4375 24.875 C 7.897468 24.967 8.219399 25.1592 8.5625 25.5 C 8.997419 25.9322 9.1875 26.37735 9.1875 26.96875 C 9.1875 27.54365 9.035561 27.9553 8.59375 28.4375 C 8.181104 28.8878 8.002347 29.14435 7.78125 29.59375 C 7.67539 29.80895 7.59375 29.9854 7.59375 30 C 7.59375 30.054 7.828426 29.8725 8.1875 29.5625 C 8.606582 29.2006 8.944438 29.0144 9.3125 28.9375 C 10.538931 28.6811 11.718826 29.41105 11.96875 30.59375 C 12.117708 31.29865 11.862636 32.0421 11.3125 32.5625 C 10.457579 33.3711 9.109905 33.3358 8.25 32.5 C 7.981985 32.2395 7.645776 31.9814 7.4375 31.875 L 7.28125 31.8125 L 7.3125 32.0625 C 7.3839 32.7594 7.601034 33.4698 7.875 34 C 8.001301 34.2444 8.095191 34.4069 8.3125 34.625 C 8.608561 34.9221 8.811196 35.0486 9.125 35.125 C 9.270662 35.16 8.893606 35.15625 7 35.15625 C 5.08429 35.15625 4.727638 35.159 4.875 35.125 C 5.56811 34.953 6.115168 34.29175 6.4375 33.28125 C 6.538893 32.96335 6.649705 32.4074 6.6875 32.0625 L 6.71875 31.84375 L 6.625 31.875 C 6.43674 31.974 6.171739 32.1651 6 32.3125 C 5.44615 32.7879 5.11015 33.00415 4.6875 33.09375 C 3.690478 33.30495 2.662237 32.8166 2.21875 31.9375 C 1.79414 31.0957 1.988105 30.13025 2.6875 29.46875 C 3.105159 29.07365 3.59526 28.8762 4.1875 28.875 C 4.809404 28.875 5.204288 29.0548 5.8125 29.5625 C 6.034238 29.7475 6.259455 29.9094 6.3125 29.9375 L 6.40625 30 L 6.375 29.875 C 6.222731 29.4434 5.941504 29.03515 5.5 28.53125 C 4.990646 27.94985 4.842939 27.58625 4.84375 26.96875 C 4.844473 26.41445 5.007932 25.9548 5.375 25.5625 C 5.7815547 25.127875 6.3157292 24.877144 6.875 24.84375 z M 23.375 30.78125 L 26.0625 30.78125 C 29.74315 30.78125 31.562485 32.72075 31.5625 36.65625 L 31.5625 43.53125 C 31.562485 45.70705 30.579087 47.05085 28.5625 47.53125 C 30.962876 48.17095 32.156234 49.6036 32.15625 51.875 L 32.15625 59.375 C 32.156234 63.2793 30.305649 65.21875 26.625 65.21875 L 23.5 65.21875 C 19.819332 65.21875 17.999998 63.2793 18 59.375 L 18 57.15625 L 22.59375 57.15625 L 22.59375 59.03125 C 22.593743 60.37495 23.221673 61.0625 24.4375 61.0625 L 25.46875 61.0625 C 26.844716 61.0625 27.531239 60.37495 27.53125 59.03125 L 27.53125 51.9375 C 27.531239 50.4336 26.635732 49.6875 24.84375 49.6875 L 23.59375 49.6875 L 23.59375 45.78125 L 24.28125 45.78125 C 26.073233 45.78135 26.968739 45.03515 26.96875 43.53125 L 26.96875 37 C 26.968739 35.6562 26.282216 35.0001 24.90625 35 L 24.28125 35 C 23.065423 35.0001 22.468744 35.6562 22.46875 37 L 22.46875 40.5 L 17.84375 40.5 L 17.84375 36.65625 C 17.843749 32.72075 19.695309 30.78125 23.375 30.78125 z "
       id="path6103"
       transform="translate(0,982.36218)" />
    <text
       xml:space="preserve"
       style="font-size:48px;font-style:normal;font-variant:normal;font-weight:normal;font-stretch:normal;text-align:start;line-height:100%;writing-mode:lr-tb;text-anchor:start;fill:#000000;fill-opacity:1;stroke:none;font-family:BigNoodleTitling;-inkscape-font-specification:BigNoodleTitling"
       x="-143.54268"
       y="40.655067"
       id="text3638"
       sodipodi:linespacing="100%"
       transform="translate(0,982.36218)"><tspan
         sodipodi:role="line"
         id="tspan3640"
         x="-143.54268"
         y="40.655067" /></text>
    <rect
       ry="4.4895606"
       rx="4.4895864"
       y="982.87262"
       x="0.51041466"
       height="68.979172"
       width="48.979172"
       id="rect3596"
       style="fill:none;fill-opacity:1;fill-rule:evenodd;stroke:#000000;stroke-width:1.02082932000000000;stroke-linecap:round;stroke-linejoin:miter;stroke-miterlimit:4;stroke-opacity:1;stroke-dasharray:none" />
    <text
       xml:space="preserve"
       style="font-size:48px;font-style:normal;font-variant:normal;font-weight:normal;font-stretch:normal;text-align:start;line-height:100%;writing-mode:lr-tb;text-anchor:start;fill:#000000;fill-opacity:1;stroke:none;font-family:BigNoodleTitling;-inkscape-font-specification:BigNoodleTitling"
       x="-105.71246"
       y="89.798988"
       id="text4401"
       sodipodi:linespacing="100%"
       transform="translate(0,982.36218)"><tspan
         sodipodi:role="line"
         id="tspan4403"
         x="-105.71246"
         y="89.798988" /></text>
    <g
       transform="translate(0,982.36218)"
       style="font-size:48px;font-style:normal;font-variant:normal;font-weight:normal;font-stretch:normal;text-align:start;line-height:100%;writing-mode:lr-tb;text-anchor:start;fill:#000000;fill-opacity:1;stroke:none;font-family:BigNoodleTitling;-inkscape-font-specification:BigNoodleTitling"
       id="text4480" />
    <g
       style="font-size:48px;font-style:normal;font-variant:normal;font-weight:normal;font-stretch:normal;text-align:start;line-height:100%;writing-mode:lr-tb;text-anchor:start;fill:#ffffff;fill-opacity:1;stroke:none;font-family:BigNoodleTitling;-inkscape-font-specification:BigNoodleTitling"
       id="text3313" />
  </g>
</svg>
