<?xml version="1.0" encoding="UTF-8" standalone="no"?>
<!-- Created with Inkscape (http://www.inkscape.org/) -->

<svg
   xmlns:dc="http://purl.org/dc/elements/1.1/"
   xmlns:cc="http://creativecommons.org/ns#"
   xmlns:rdf="http://www.w3.org/1999/02/22-rdf-syntax-ns#"
   xmlns:svg="http://www.w3.org/2000/svg"
   xmlns="http://www.w3.org/2000/svg"
   xmlns:xlink="http://www.w3.org/1999/xlink"
   xmlns:sodipodi="http://sodipodi.sourceforge.net/DTD/sodipodi-0.dtd"
   xmlns:inkscape="http://www.inkscape.org/namespaces/inkscape"
   width="50"
   height="70"
   id="svg2"
   version="1.1"
   inkscape:version="0.47 r22583"
   sodipodi:docname="J.svg">
  <defs
     id="defs4">
    <linearGradient
       id="linearGradient3662">
      <stop
         id="stop3664"
         offset="0"
         style="stop-color:#fff2cc;stop-opacity:1;" />
      <stop
         style="stop-color:#ffffff;stop-opacity:1"
         offset="0.37598139"
         id="stop3666" />
      <stop
         id="stop3668"
         offset="1"
         style="stop-color:#fbefc8;stop-opacity:1" />
    </linearGradient>
    <linearGradient
       id="linearGradient3650">
      <stop
         style="stop-color:#fff2cc;stop-opacity:1;"
         offset="0"
         id="stop3652" />
      <stop
         id="stop3658"
         offset="0.5"
         style="stop-color:#ffffff;stop-opacity:1" />
      <stop
         style="stop-color:#fbefc8;stop-opacity:1"
         offset="1"
         id="stop3654" />
    </linearGradient>
    <inkscape:perspective
       sodipodi:type="inkscape:persp3d"
       inkscape:vp_x="0 : 526.18109 : 1"
       inkscape:vp_y="0 : 1000 : 0"
       inkscape:vp_z="744.09448 : 526.18109 : 1"
       inkscape:persp3d-origin="372.04724 : 350.78739 : 1"
       id="perspective10" />
    <inkscape:perspective
       id="perspective2930"
       inkscape:persp3d-origin="0.5 : 0.33333333 : 1"
       inkscape:vp_z="1 : 0.5 : 1"
       inkscape:vp_y="0 : 1000 : 0"
       inkscape:vp_x="0 : 0.5 : 1"
       sodipodi:type="inkscape:persp3d" />
    <linearGradient
       y2="-638.69043"
       x2="-1574.2311"
       y1="-621.16492"
       x1="-1610.3618"
       gradientTransform="translate(1622.749,658.34061)"
       gradientUnits="userSpaceOnUse"
       id="linearGradient3755"
       xlink:href="#linearGradient3727"
       inkscape:collect="always" />
    <linearGradient
       id="linearGradient3727">
      <stop
         id="stop3729"
         offset="0"
         style="stop-color:#9d4a12;stop-opacity:1" />
      <stop
         id="stop3731"
         offset="1"
         style="stop-color:#df6a1a;stop-opacity:1" />
    </linearGradient>
    <inkscape:perspective
       id="perspective3615"
       inkscape:persp3d-origin="0.5 : 0.33333333 : 1"
       inkscape:vp_z="1 : 0.5 : 1"
       inkscape:vp_y="0 : 1000 : 0"
       inkscape:vp_x="0 : 0.5 : 1"
       sodipodi:type="inkscape:persp3d" />
    <inkscape:perspective
       id="perspective3944"
       inkscape:persp3d-origin="0.5 : 0.33333333 : 1"
       inkscape:vp_z="1 : 0.5 : 1"
       inkscape:vp_y="0 : 1000 : 0"
       inkscape:vp_x="0 : 0.5 : 1"
       sodipodi:type="inkscape:persp3d" />
    <inkscape:perspective
       id="perspective3660"
       inkscape:persp3d-origin="0.5 : 0.33333333 : 1"
       inkscape:vp_z="1 : 0.5 : 1"
       inkscape:vp_y="0 : 1000 : 0"
       inkscape:vp_x="0 : 0.5 : 1"
       sodipodi:type="inkscape:persp3d" />
    <linearGradient
       id="linearGradient3633">
      <stop
         style="stop-color:#333333;stop-opacity:1;"
         offset="0"
         id="stop3635" />
      <stop
         style="stop-color:#846031;stop-opacity:1;"
         offset="1"
         id="stop3637" />
    </linearGradient>
    <inkscape:perspective
       id="perspective3813"
       inkscape:persp3d-origin="0.5 : 0.33333333 : 1"
       inkscape:vp_z="1 : 0.5 : 1"
       inkscape:vp_y="0 : 1000 : 0"
       inkscape:vp_x="0 : 0.5 : 1"
       sodipodi:type="inkscape:persp3d" />
    <inkscape:perspective
       id="perspective2844"
       inkscape:persp3d-origin="0.5 : 0.33333333 : 1"
       inkscape:vp_z="1 : 0.5 : 1"
       inkscape:vp_y="0 : 1000 : 0"
       inkscape:vp_x="0 : 0.5 : 1"
       sodipodi:type="inkscape:persp3d" />
    <inkscape:perspective
       id="perspective2860"
       inkscape:persp3d-origin="0.5 : 0.33333333 : 1"
       inkscape:vp_z="1 : 0.5 : 1"
       inkscape:vp_y="0 : 1000 : 0"
       inkscape:vp_x="0 : 0.5 : 1"
       sodipodi:type="inkscape:persp3d" />
    <inkscape:perspective
       id="perspective2877"
       inkscape:persp3d-origin="0.5 : 0.33333333 : 1"
       inkscape:vp_z="1 : 0.5 : 1"
       inkscape:vp_y="0 : 1000 : 0"
       inkscape:vp_x="0 : 0.5 : 1"
       sodipodi:type="inkscape:persp3d" />
    <inkscape:perspective
       id="perspective3049"
       inkscape:persp3d-origin="0.5 : 0.33333333 : 1"
       inkscape:vp_z="1 : 0.5 : 1"
       inkscape:vp_y="0 : 1000 : 0"
       inkscape:vp_x="0 : 0.5 : 1"
       sodipodi:type="inkscape:persp3d" />
    <linearGradient
       gradientUnits="userSpaceOnUse"
       y2="643.0625"
       x2="334.28125"
       y1="713.0625"
       x1="334.28125"
       id="linearGradient3639-5"
       xlink:href="#linearGradient3633-2"
       inkscape:collect="always" />
    <linearGradient
       id="linearGradient3633-2">
      <stop
         id="stop3635-7"
         offset="0"
         style="stop-color:#333333;stop-opacity:1;" />
      <stop
         id="stop3637-6"
         offset="1"
         style="stop-color:#846031;stop-opacity:1;" />
    </linearGradient>
    <inkscape:perspective
       id="perspective2957"
       inkscape:persp3d-origin="0.5 : 0.33333333 : 1"
       inkscape:vp_z="1 : 0.5 : 1"
       inkscape:vp_y="0 : 1000 : 0"
       inkscape:vp_x="0 : 0.5 : 1"
       sodipodi:type="inkscape:persp3d" />
    <linearGradient
       inkscape:collect="always"
       xlink:href="#linearGradient3668-2-0"
       id="linearGradient2994"
       gradientUnits="userSpaceOnUse"
       gradientTransform="matrix(0.8375442,0,0,0.8375442,50.99384,113.78184)"
       x1="318.42474"
       y1="698.59918"
       x2="318.42474"
       y2="690.64038" />
    <linearGradient
       id="linearGradient3668-2-0">
      <stop
         id="stop3670-2-81"
         offset="0"
         style="stop-color:#fff3cd;stop-opacity:1" />
      <stop
         style="stop-color:#ffffff;stop-opacity:1"
         offset="0.5"
         id="stop2966-0" />
      <stop
         id="stop3672-1-9"
         offset="1"
         style="stop-color:#fff2cc;stop-opacity:1;" />
    </linearGradient>
    <linearGradient
       inkscape:collect="always"
       xlink:href="#linearGradient3633-4-4"
       id="linearGradient7264"
       gradientUnits="userSpaceOnUse"
       gradientTransform="translate(0.00449,1e-5)"
       x1="334.28125"
       y1="713.0625"
       x2="334.28125"
       y2="643.0625" />
    <linearGradient
       id="linearGradient3633-4-4">
      <stop
         id="stop3635-3-9"
         offset="0"
         style="stop-color:#333333;stop-opacity:1;" />
      <stop
         id="stop3637-1-15"
         offset="1"
         style="stop-color:#846031;stop-opacity:1;" />
    </linearGradient>
    <inkscape:perspective
       id="perspective2880"
       inkscape:persp3d-origin="0.5 : 0.33333333 : 1"
       inkscape:vp_z="1 : 0.5 : 1"
       inkscape:vp_y="0 : 1000 : 0"
       inkscape:vp_x="0 : 0.5 : 1"
       sodipodi:type="inkscape:persp3d" />
    <linearGradient
       inkscape:collect="always"
       xlink:href="#linearGradient3640"
       id="linearGradient3646"
       x1="334.29022"
       y1="713.07642"
       x2="334.29022"
       y2="643.07642"
       gradientUnits="userSpaceOnUse" />
    <linearGradient
       id="linearGradient3640">
      <stop
         style="stop-color:#ad8f35;stop-opacity:1;"
         offset="0"
         id="stop3642" />
      <stop
         style="stop-color:#a18430;stop-opacity:1;"
         offset="1"
         id="stop3644" />
    </linearGradient>
    <linearGradient
       gradientTransform="translate(-3.9160548e-6,2.6172643e-7)"
       y2="643.07642"
       x2="334.29022"
       y1="713.07642"
       x1="334.29022"
       gradientUnits="userSpaceOnUse"
       id="linearGradient2889"
       xlink:href="#linearGradient3640"
       inkscape:collect="always" />
    <linearGradient
       inkscape:collect="always"
       xlink:href="#linearGradient3650"
       id="linearGradient3656"
       x1="316.72855"
       y1="676.33179"
       x2="316.72855"
       y2="646.61896"
       gradientUnits="userSpaceOnUse" />
    <linearGradient
       inkscape:collect="always"
       xlink:href="#linearGradient3662"
       id="linearGradient3660"
       gradientUnits="userSpaceOnUse"
       x1="316.72855"
       y1="676.33179"
       x2="316.72855"
       y2="646.61896" />
    <linearGradient
       inkscape:collect="always"
       xlink:href="#linearGradient3662"
       id="linearGradient2873"
       gradientUnits="userSpaceOnUse"
       x1="316.72855"
       y1="676.33179"
       x2="316.72855"
       y2="646.61896" />
    <inkscape:perspective
       id="perspective2933"
       inkscape:persp3d-origin="0.5 : 0.33333333 : 1"
       inkscape:vp_z="1 : 0.5 : 1"
       inkscape:vp_y="0 : 1000 : 0"
       inkscape:vp_x="0 : 0.5 : 1"
       sodipodi:type="inkscape:persp3d" />
  </defs>
  <sodipodi:namedview
     id="base"
     pagecolor="#fff2ca"
     bordercolor="#666666"
     borderopacity="1.0"
     inkscape:pageopacity="0.0"
     inkscape:pageshadow="2"
     inkscape:zoom="4"
     inkscape:cx="9.6043758"
     inkscape:cy="66.525003"
     inkscape:document-units="px"
     inkscape:current-layer="layer1"
     showgrid="false"
     inkscape:window-width="1267"
     inkscape:window-height="987"
     inkscape:window-x="57"
     inkscape:window-y="57"
     inkscape:window-maximized="0" />
  <metadata
     id="metadata7">
    <rdf:RDF>
      <cc:Work
         rdf:about="">
        <dc:format>image/svg+xml</dc:format>
        <dc:type
           rdf:resource="http://purl.org/dc/dcmitype/StillImage" />
        <dc:title />
      </cc:Work>
    </rdf:RDF>
  </metadata>
  <g
     inkscape:label="Layer 1"
     inkscape:groupmode="layer"
     id="layer1"
     transform="translate(-309.28573,-643.07644)">
    <rect
       ry="4.8534164"
       y="643.57648"
       x="309.79025"
       height="68.999924"
       width="48.999924"
       id="rect5714-2-1"
       style="fill:url(#linearGradient2889);fill-opacity:1;stroke:#c4a549;stroke-width:1.00007463;stroke-linecap:butt;stroke-linejoin:miter;stroke-miterlimit:4;stroke-opacity:1;stroke-dasharray:none;display:inline" />
    <path
       sodipodi:nodetypes="cscscc"
       id="path2935"
       d="m 358.63596,647.0144 c -0.62065,-1.69276 -1.28296,-2.79061 -1.58309,-2.46377 -8.10821,8.82998 -33.30981,29.74661 -6.97274,35.8432 4.14693,0.66896 2.00679,1.21474 3.03409,5.58529 0.77485,3.29673 3.33834,3.5422 5.54504,3.21348 0.19215,-2.40964 0.30344,-39.17067 -0.0233,-42.1782 z"
       style="opacity:0.07999998;fill:#ffffff;fill-opacity:1;stroke:none" />
    <path
       style="font-size:medium;font-style:normal;font-variant:normal;font-weight:normal;font-stretch:normal;text-indent:0;text-align:start;text-decoration:none;line-height:normal;letter-spacing:normal;word-spacing:normal;text-transform:none;direction:ltr;block-progression:tb;writing-mode:lr-tb;text-anchor:start;color:#000000;fill:url(#linearGradient7264);fill-opacity:1;stroke:none;stroke-width:1.00007463;marker:none;visibility:visible;display:inline;overflow:visible;enable-background:accumulate;font-family:Bitstream Vera Sans;-inkscape-font-specification:Bitstream Vera Sans"
       d="m 314.62948,643.06251 c -2.95716,0 -5.34375,2.41784 -5.34375,5.375 l 0,59.28125 c 0,2.95716 2.38659,5.34375 5.34375,5.34375 l 39.3125,0 c 2.95716,0 5.34375,-2.38659 5.34375,-5.34375 l 0,-59.28125 c 0,-2.95716 -2.38659,-5.375 -5.34375,-5.375 l -39.3125,0 z m 0,1 39.3125,0 c 2.42042,0 4.34375,1.95458 4.34375,4.375 l 0,59.28125 c 0,2.42042 -1.92333,4.34375 -4.34375,4.34375 l -39.3125,0 c -2.42042,0 -4.34375,-1.92333 -4.34375,-4.34375 l 0,-59.28125 c 0,-2.42042 1.92333,-4.375 4.34375,-4.375 z"
       id="rect2855-3" />
    <path
       style="fill:#6d5612;fill-opacity:1;stroke:none"
       d="m 319.24124,693.66079 c -1.49043,1.90372 -8.90326,6.17897 -2.05273,7.784 1.0158,0.16583 0.49157,0.30115 0.74321,1.38472 0.1898,0.81731 0.0724,0.96478 0.61306,0.88328 0.50527,0.0451 0.72438,-0.62822 1.37858,-1.02549 0.58319,-0.35414 0.96167,-0.6125 1.71225,-0.84465 8.13506,-2.46791 0.50575,-6.37332 -2.39437,-8.18186 z"
       id="path2875"
       sodipodi:nodetypes="ccscscc" />
    <path
       sodipodi:nodetypes="ccscscc"
       id="path2873"
       d="m 318.00855,690.12039 c -1.49043,1.90371 -8.87515,7.65171 -2.0246,9.25672 1.0158,0.16585 0.49155,0.30117 0.7432,1.38473 0.1898,0.81731 0.81773,0.87817 1.35828,0.79669 0.50526,0.0451 1.05702,-0.0701 1.23014,-0.81565 0.25165,-1.08357 -0.29821,-1.19992 0.7176,-1.36577 7.22246,-1.45275 -0.53419,-7.35301 -2.02462,-9.25672 z"
       style="fill:#858585;fill-opacity:1;stroke:none" />
    <path
       sodipodi:nodetypes="ccscscc"
       id="path2854"
       d="m 317.59765,691.61522 c -1.64809,2.07986 -9.81402,8.3598 -2.23879,10.11334 1.12326,0.1812 0.54357,0.32903 0.82183,1.51286 0.20988,0.89297 0.90424,0.95946 1.50196,0.87042 0.55873,0.0491 1.16884,-0.0767 1.3603,-0.89114 0.27826,-1.18383 -0.32976,-1.31094 0.79351,-1.49214 7.98648,-1.58718 -0.59071,-8.03348 -2.23881,-10.11334 z"
       style="fill:#999999;fill-opacity:1;stroke:none" />
    <path
       style="fill:url(#linearGradient2994);fill-opacity:1;stroke:none"
       d="m 317.59765,689.5113 c -1.64809,2.07989 -9.81402,8.35981 -2.23879,10.11335 1.12326,0.18119 0.54357,0.32903 0.82183,1.51287 0.20988,0.89295 0.90424,0.95944 1.50196,0.87041 0.55873,0.0491 1.16884,-0.0767 1.3603,-0.89114 0.27826,-1.18382 -0.32976,-1.31095 0.79351,-1.49214 7.98648,-1.58719 -0.59071,-8.03346 -2.23881,-10.11335 z"
       id="path2846"
       sodipodi:nodetypes="ccscscc" />
    <g
       style="font-size:40.81451797px;font-style:normal;font-variant:normal;font-weight:normal;font-stretch:normal;text-align:start;line-height:125%;writing-mode:lr-tb;text-anchor:start;fill:url(#linearGradient3656);fill-opacity:1;stroke:none;font-family:Univers UltraCondensed;-inkscape-font-specification:Univers UltraCondensed"
       id="text5211-6"
       transform="translate(0.5,0)">
      <path
         d="m 311.15715,671.26984 0,-3.79522 3.83632,0 0,2.89718 c 0,1.8509 0.51732,2.77635 1.55197,2.77635 1.11519,0 1.67278,-0.97984 1.67279,-2.93952 l 0,-23.58967 4.0817,0 0,24.03931 c -1e-5,3.78236 -1.91817,5.67353 -5.75449,5.67353 -1.8235,0 -3.14338,-0.34045 -3.95964,-1.02136 -0.95243,-0.78885 -1.42865,-2.13572 -1.42865,-4.0406 z"
         style="line-height:125%;fill:url(#linearGradient3660);fill-opacity:1;font-family:Univers UltraCondensed;-inkscape-font-specification:Univers UltraCondensed"
         id="path2876" />
      <path
         sodipodi:type="inkscape:offset"
         inkscape:radius="0.51031888"
         inkscape:original="M 318.21875 646.625 L 318.21875 670.21875 C 318.21874 672.17843 317.64644 673.15625 316.53125 673.15625 C 315.4966 673.15625 315 672.2259 315 670.375 L 315 667.46875 L 311.15625 667.46875 L 311.15625 671.28125 C 311.15625 673.18613 311.64132 674.52365 312.59375 675.3125 C 313.41001 675.99341 314.70775 676.34375 316.53125 676.34375 C 320.36757 676.34375 322.31249 674.43861 322.3125 670.65625 L 322.3125 646.625 L 318.21875 646.625 z "
         style="line-height:125%;fill:none;stroke:#6d5612;stroke-opacity:1;font-family:Univers UltraCondensed;-inkscape-font-specification:Univers UltraCondensed"
         id="path2877"
         d="m 318.0625,646.125 a 0.51036991,0.51036991 0 0 0 -0.34375,0.5 l 0,23.59375 c 0,0.93016 -0.16571,1.57489 -0.375,1.9375 -0.20929,0.36261 -0.40406,0.5 -0.8125,0.5 -0.36437,0 -0.53451,-0.10029 -0.71875,-0.4375 -0.18424,-0.33721 -0.3125,-0.96394 -0.3125,-1.84375 l 0,-2.90625 a 0.51036991,0.51036991 0 0 0 -0.5,-0.5 l -3.84375,0 a 0.51036991,0.51036991 0 0 0 -0.5,0.5 l 0,3.8125 c 0,1.99151 0.51988,3.52219 1.625,4.4375 0.95445,0.79618 2.36114,1.125 4.25,1.125 2.00264,0 3.60106,-0.49484 4.6875,-1.5625 1.08644,-1.06766 1.59374,-2.64635 1.59375,-4.625 l 0,-24.03125 a 0.51036991,0.51036991 0 0 0 -0.5,-0.5 l -4.09375,0 a 0.51036991,0.51036991 0 0 0 -0.15625,0 z" />
    </g>
  </g>
</svg>
