<?xml version="1.0" encoding="UTF-8" standalone="no"?>
<!-- Created with Inkscape (http://www.inkscape.org/) -->

<svg
   xmlns:dc="http://purl.org/dc/elements/1.1/"
   xmlns:cc="http://creativecommons.org/ns#"
   xmlns:rdf="http://www.w3.org/1999/02/22-rdf-syntax-ns#"
   xmlns:svg="http://www.w3.org/2000/svg"
   xmlns="http://www.w3.org/2000/svg"
   xmlns:xlink="http://www.w3.org/1999/xlink"
   xmlns:sodipodi="http://sodipodi.sourceforge.net/DTD/sodipodi-0.dtd"
   xmlns:inkscape="http://www.inkscape.org/namespaces/inkscape"
   width="50"
   height="70"
   id="svg2"
   version="1.1"
   inkscape:version="0.47 r22583"
   sodipodi:docname="8.svg">
  <defs
     id="defs4">
    <linearGradient
       id="linearGradient3626">
      <stop
         style="stop-color:#fff2cc;stop-opacity:1;"
         offset="0"
         id="stop3628" />
      <stop
         id="stop3634"
         offset="0.37593126"
         style="stop-color:#ffffff;stop-opacity:1" />
      <stop
         style="stop-color:#fff2cc;stop-opacity:1;"
         offset="1"
         id="stop3630" />
    </linearGradient>
    <inkscape:perspective
       sodipodi:type="inkscape:persp3d"
       inkscape:vp_x="0 : 526.18109 : 1"
       inkscape:vp_y="0 : 1000 : 0"
       inkscape:vp_z="744.09448 : 526.18109 : 1"
       inkscape:persp3d-origin="372.04724 : 350.78739 : 1"
       id="perspective10" />
    <inkscape:perspective
       id="perspective2930"
       inkscape:persp3d-origin="0.5 : 0.33333333 : 1"
       inkscape:vp_z="1 : 0.5 : 1"
       inkscape:vp_y="0 : 1000 : 0"
       inkscape:vp_x="0 : 0.5 : 1"
       sodipodi:type="inkscape:persp3d" />
    <linearGradient
       y2="-638.69043"
       x2="-1574.2311"
       y1="-621.16492"
       x1="-1610.3618"
       gradientTransform="translate(1622.749,658.34061)"
       gradientUnits="userSpaceOnUse"
       id="linearGradient3755"
       xlink:href="#linearGradient3727"
       inkscape:collect="always" />
    <linearGradient
       id="linearGradient3727">
      <stop
         id="stop3729"
         offset="0"
         style="stop-color:#9d4a12;stop-opacity:1" />
      <stop
         id="stop3731"
         offset="1"
         style="stop-color:#df6a1a;stop-opacity:1" />
    </linearGradient>
    <inkscape:perspective
       id="perspective3615"
       inkscape:persp3d-origin="0.5 : 0.33333333 : 1"
       inkscape:vp_z="1 : 0.5 : 1"
       inkscape:vp_y="0 : 1000 : 0"
       inkscape:vp_x="0 : 0.5 : 1"
       sodipodi:type="inkscape:persp3d" />
    <inkscape:perspective
       id="perspective3944"
       inkscape:persp3d-origin="0.5 : 0.33333333 : 1"
       inkscape:vp_z="1 : 0.5 : 1"
       inkscape:vp_y="0 : 1000 : 0"
       inkscape:vp_x="0 : 0.5 : 1"
       sodipodi:type="inkscape:persp3d" />
    <inkscape:perspective
       id="perspective3660"
       inkscape:persp3d-origin="0.5 : 0.33333333 : 1"
       inkscape:vp_z="1 : 0.5 : 1"
       inkscape:vp_y="0 : 1000 : 0"
       inkscape:vp_x="0 : 0.5 : 1"
       sodipodi:type="inkscape:persp3d" />
    <linearGradient
       inkscape:collect="always"
       xlink:href="#linearGradient3633"
       id="linearGradient3639"
       x1="334.28125"
       y1="713.0625"
       x2="334.28125"
       y2="643.0625"
       gradientUnits="userSpaceOnUse" />
    <linearGradient
       id="linearGradient3633">
      <stop
         style="stop-color:#333333;stop-opacity:1;"
         offset="0"
         id="stop3635" />
      <stop
         style="stop-color:#846031;stop-opacity:1;"
         offset="1"
         id="stop3637" />
    </linearGradient>
    <inkscape:perspective
       id="perspective3813"
       inkscape:persp3d-origin="0.5 : 0.33333333 : 1"
       inkscape:vp_z="1 : 0.5 : 1"
       inkscape:vp_y="0 : 1000 : 0"
       inkscape:vp_x="0 : 0.5 : 1"
       sodipodi:type="inkscape:persp3d" />
    <inkscape:perspective
       id="perspective2844"
       inkscape:persp3d-origin="0.5 : 0.33333333 : 1"
       inkscape:vp_z="1 : 0.5 : 1"
       inkscape:vp_y="0 : 1000 : 0"
       inkscape:vp_x="0 : 0.5 : 1"
       sodipodi:type="inkscape:persp3d" />
    <inkscape:perspective
       id="perspective2860"
       inkscape:persp3d-origin="0.5 : 0.33333333 : 1"
       inkscape:vp_z="1 : 0.5 : 1"
       inkscape:vp_y="0 : 1000 : 0"
       inkscape:vp_x="0 : 0.5 : 1"
       sodipodi:type="inkscape:persp3d" />
    <inkscape:perspective
       id="perspective2877"
       inkscape:persp3d-origin="0.5 : 0.33333333 : 1"
       inkscape:vp_z="1 : 0.5 : 1"
       inkscape:vp_y="0 : 1000 : 0"
       inkscape:vp_x="0 : 0.5 : 1"
       sodipodi:type="inkscape:persp3d" />
    <inkscape:perspective
       id="perspective2957"
       inkscape:persp3d-origin="0.5 : 0.33333333 : 1"
       inkscape:vp_z="1 : 0.5 : 1"
       inkscape:vp_y="0 : 1000 : 0"
       inkscape:vp_x="0 : 0.5 : 1"
       sodipodi:type="inkscape:persp3d" />
    <linearGradient
       inkscape:collect="always"
       xlink:href="#linearGradient3668-2-0"
       id="linearGradient2994"
       gradientUnits="userSpaceOnUse"
       gradientTransform="matrix(0.8375442,0,0,0.8375442,50.99384,113.78184)"
       x1="318.42474"
       y1="698.59918"
       x2="318.42474"
       y2="690.64038" />
    <linearGradient
       id="linearGradient3668-2-0">
      <stop
         id="stop3670-2-81"
         offset="0"
         style="stop-color:#fff3cd;stop-opacity:1" />
      <stop
         style="stop-color:#ffffff;stop-opacity:1"
         offset="0.5"
         id="stop2966-0" />
      <stop
         id="stop3672-1-9"
         offset="1"
         style="stop-color:#fff2cc;stop-opacity:1;" />
    </linearGradient>
    <linearGradient
       inkscape:collect="always"
       xlink:href="#linearGradient3633-4-4"
       id="linearGradient7264"
       gradientUnits="userSpaceOnUse"
       gradientTransform="translate(0.00449,1e-5)"
       x1="334.28125"
       y1="713.0625"
       x2="334.28125"
       y2="643.0625" />
    <linearGradient
       id="linearGradient3633-4-4">
      <stop
         id="stop3635-3-9"
         offset="0"
         style="stop-color:#333333;stop-opacity:1;" />
      <stop
         id="stop3637-1-15"
         offset="1"
         style="stop-color:#846031;stop-opacity:1;" />
    </linearGradient>
    <linearGradient
       inkscape:collect="always"
       xlink:href="#linearGradient3626"
       id="linearGradient3632"
       x1="317.92184"
       y1="676.33179"
       x2="317.92184"
       y2="646.37354"
       gradientUnits="userSpaceOnUse" />
    <inkscape:perspective
       id="perspective2877-1"
       inkscape:persp3d-origin="0.5 : 0.33333333 : 1"
       inkscape:vp_z="1 : 0.5 : 1"
       inkscape:vp_y="0 : 1000 : 0"
       inkscape:vp_x="0 : 0.5 : 1"
       sodipodi:type="inkscape:persp3d" />
    <linearGradient
       gradientTransform="translate(-3.9160548e-6,2.6172643e-7)"
       y2="643.07642"
       x2="334.29022"
       y1="713.07642"
       x1="334.29022"
       gradientUnits="userSpaceOnUse"
       id="linearGradient2889"
       xlink:href="#linearGradient3640"
       inkscape:collect="always" />
    <linearGradient
       id="linearGradient3640">
      <stop
         style="stop-color:#ad8f35;stop-opacity:1;"
         offset="0"
         id="stop3642" />
      <stop
         style="stop-color:#a18430;stop-opacity:1;"
         offset="1"
         id="stop3644" />
    </linearGradient>
    <linearGradient
       y2="643.07642"
       x2="334.29022"
       y1="713.07642"
       x1="334.29022"
       gradientTransform="translate(-3.9160548e-6,2.6172643e-7)"
       gradientUnits="userSpaceOnUse"
       id="linearGradient2886"
       xlink:href="#linearGradient3640"
       inkscape:collect="always" />
    <inkscape:perspective
       id="perspective2933"
       inkscape:persp3d-origin="0.5 : 0.33333333 : 1"
       inkscape:vp_z="1 : 0.5 : 1"
       inkscape:vp_y="0 : 1000 : 0"
       inkscape:vp_x="0 : 0.5 : 1"
       sodipodi:type="inkscape:persp3d" />
  </defs>
  <sodipodi:namedview
     id="base"
     pagecolor="#fff2ca"
     bordercolor="#666666"
     borderopacity="1.0"
     inkscape:pageopacity="0.0"
     inkscape:pageshadow="2"
     inkscape:zoom="3.4228679"
     inkscape:cx="8.5336588"
     inkscape:cy="31.162871"
     inkscape:document-units="px"
     inkscape:current-layer="layer1"
     showgrid="false"
     inkscape:window-width="550"
     inkscape:window-height="497"
     inkscape:window-x="247"
     inkscape:window-y="247"
     inkscape:window-maximized="0" />
  <metadata
     id="metadata7">
    <rdf:RDF>
      <cc:Work
         rdf:about="">
        <dc:format>image/svg+xml</dc:format>
        <dc:type
           rdf:resource="http://purl.org/dc/dcmitype/StillImage" />
        <dc:title />
      </cc:Work>
    </rdf:RDF>
  </metadata>
  <g
     inkscape:label="Layer 1"
     inkscape:groupmode="layer"
     id="layer1"
     transform="translate(-309.28573,-643.07644)">
    <rect
       ry="4.8534164"
       y="643.57648"
       x="309.79025"
       height="68.999924"
       width="48.999924"
       id="rect5714-2-1"
       style="fill:url(#linearGradient2886);fill-opacity:1;stroke:#c4a549;stroke-width:1.00007463;stroke-linecap:butt;stroke-linejoin:miter;stroke-miterlimit:4;stroke-opacity:1;stroke-dasharray:none;display:inline" />
    <path
       sodipodi:nodetypes="cscscc"
       id="path2935"
       d="m 358.63596,647.0144 c -0.62065,-1.69276 -1.28296,-2.79061 -1.58309,-2.46377 -8.10821,8.82998 -33.30981,29.74661 -6.97274,35.8432 4.14693,0.66896 2.00679,1.21474 3.03409,5.58529 0.77485,3.29673 3.33834,3.5422 5.54504,3.21348 0.19215,-2.40964 0.30344,-39.17067 -0.0233,-42.1782 z"
       style="opacity:0.07999998;fill:#ffffff;fill-opacity:1;stroke:none" />
    <path
       style="font-size:medium;font-style:normal;font-variant:normal;font-weight:normal;font-stretch:normal;text-indent:0;text-align:start;text-decoration:none;line-height:normal;letter-spacing:normal;word-spacing:normal;text-transform:none;direction:ltr;block-progression:tb;writing-mode:lr-tb;text-anchor:start;color:#000000;fill:url(#linearGradient7264);fill-opacity:1;stroke:none;stroke-width:1.00007463;marker:none;visibility:visible;display:inline;overflow:visible;enable-background:accumulate;font-family:Bitstream Vera Sans;-inkscape-font-specification:Bitstream Vera Sans"
       d="m 314.62948,643.06251 c -2.95716,0 -5.34375,2.41784 -5.34375,5.375 l 0,59.28125 c 0,2.95716 2.38659,5.34375 5.34375,5.34375 l 39.3125,0 c 2.95716,0 5.34375,-2.38659 5.34375,-5.34375 l 0,-59.28125 c 0,-2.95716 -2.38659,-5.375 -5.34375,-5.375 l -39.3125,0 z m 0,1 39.3125,0 c 2.42042,0 4.34375,1.95458 4.34375,4.375 l 0,59.28125 c 0,2.42042 -1.92333,4.34375 -4.34375,4.34375 l -39.3125,0 c -2.42042,0 -4.34375,-1.92333 -4.34375,-4.34375 l 0,-59.28125 c 0,-2.42042 1.92333,-4.375 4.34375,-4.375 z"
       id="rect2855-3" />
    <path
       style="fill:#6d5612;fill-opacity:1;stroke:none"
       d="m 319.24124,693.66079 c -1.49043,1.90372 -8.90326,6.17897 -2.05273,7.784 1.0158,0.16583 0.49157,0.30115 0.74321,1.38472 0.1898,0.81731 0.0724,0.96478 0.61306,0.88328 0.50527,0.0451 0.72438,-0.62822 1.37858,-1.02549 0.58319,-0.35414 0.96167,-0.6125 1.71225,-0.84465 8.13506,-2.46791 0.50575,-6.37332 -2.39437,-8.18186 z"
       id="path2875"
       sodipodi:nodetypes="ccscscc" />
    <path
       sodipodi:nodetypes="ccscscc"
       id="path2873"
       d="m 318.00855,690.12039 c -1.49043,1.90371 -8.87515,7.65171 -2.0246,9.25672 1.0158,0.16585 0.49155,0.30117 0.7432,1.38473 0.1898,0.81731 0.81773,0.87817 1.35828,0.79669 0.50526,0.0451 1.05702,-0.0701 1.23014,-0.81565 0.25165,-1.08357 -0.29821,-1.19992 0.7176,-1.36577 7.22246,-1.45275 -0.53419,-7.35301 -2.02462,-9.25672 z"
       style="fill:#858585;fill-opacity:1;stroke:none" />
    <path
       sodipodi:nodetypes="ccscscc"
       id="path2854"
       d="m 317.59765,691.61522 c -1.64809,2.07986 -9.81402,8.3598 -2.23879,10.11334 1.12326,0.1812 0.54357,0.32903 0.82183,1.51286 0.20988,0.89297 0.90424,0.95946 1.50196,0.87042 0.55873,0.0491 1.16884,-0.0767 1.3603,-0.89114 0.27826,-1.18383 -0.32976,-1.31094 0.79351,-1.49214 7.98648,-1.58718 -0.59071,-8.03348 -2.23881,-10.11334 z"
       style="fill:#999999;fill-opacity:1;stroke:none" />
    <path
       style="fill:url(#linearGradient2994);fill-opacity:1;stroke:none"
       d="m 317.59765,689.5113 c -1.64809,2.07989 -9.81402,8.35981 -2.23879,10.11335 1.12326,0.18119 0.54357,0.32903 0.82183,1.51287 0.20988,0.89295 0.90424,0.95944 1.50196,0.87041 0.55873,0.0491 1.16884,-0.0767 1.3603,-0.89114 0.27826,-1.18382 -0.32976,-1.31095 0.79351,-1.49214 7.98648,-1.58719 -0.59071,-8.03346 -2.23881,-10.11335 z"
       id="path2846"
       sodipodi:nodetypes="ccscscc" />
    <g
       style="font-size:40.81451797px;font-style:normal;font-variant:normal;font-weight:normal;font-stretch:normal;text-align:start;line-height:125%;writing-mode:lr-tb;text-anchor:start;fill:#fff2ca;fill-opacity:1;stroke:none;font-family:Univers UltraCondensed;-inkscape-font-specification:Univers UltraCondensed"
       id="text5211-6">
      <path
         d="m 320.16697,669.71912 0,-3.59095 c -10e-6,-1.22479 -0.0951,-2.06845 -0.28523,-2.53098 -0.29978,-0.76227 -0.95287,-1.14341 -1.95927,-1.14342 -1.00725,1e-5 -1.66034,0.38115 -1.95927,1.14342 -0.19016,0.46253 -0.28524,1.30619 -0.28523,2.53098 l 0,3.59095 c -1e-5,1.22481 0.0951,2.06847 0.28523,2.53098 0.29893,0.76146 0.95202,1.14218 1.95927,1.14218 1.0064,0 1.65949,-0.38072 1.95927,-1.14218 0.19014,-0.46251 0.28522,-1.30617 0.28523,-2.53098 z m -0.24538,-13.18301 0,-3.67315 c -10e-6,-1.11517 -0.0814,-1.87704 -0.24413,-2.28561 -0.27237,-0.68005 -0.85737,-1.02009 -1.75499,-1.02011 -0.89764,2e-5 -1.48264,0.34006 -1.75499,1.02011 -0.16359,0.40857 -0.24539,1.17044 -0.24538,2.28561 l 0,2.40766 c -10e-6,1.52376 0.0818,2.51688 0.24538,2.97938 0.24495,0.68093 0.82995,1.02138 1.75499,1.02136 0.89762,2e-5 1.48262,-0.29933 1.75499,-0.89805 0.16275,-0.32715 0.24412,-0.93955 0.24413,-1.8372 z m -8.08119,12.53034 0,-2.44877 c 0,-2.01365 0.24496,-3.40162 0.73488,-4.16391 0.43594,-0.65266 1.2796,-1.15587 2.53098,-1.50962 l 0,-0.081 c -1.17,-0.27235 -1.96591,-0.80316 -2.38774,-1.59245 -0.42183,-0.78925 -0.63275,-2.08152 -0.63275,-3.87681 l 0,-2.73525 c 0,-2.17638 0.40813,-3.7408 1.22439,-4.69327 0.89763,-1.06119 2.43506,-1.59179 4.61231,-1.59182 2.1764,3e-5 3.71383,0.53063 4.61231,1.59182 0.81624,0.95247 1.22437,2.51689 1.22438,4.69327 l 0,2.73525 c -1e-5,1.79529 -0.21092,3.08756 -0.63274,3.87681 -0.42184,0.78929 -1.21775,1.3201 -2.38774,1.59245 l 0,0.081 c 1.25136,0.35375 2.09461,0.85696 2.52973,1.50962 0.48991,0.76229 0.73487,2.15026 0.73488,4.16391 l 0,2.44877 c -10e-6,2.72114 -0.42163,4.61231 -1.26486,5.67353 -0.84326,1.06121 -2.44858,1.59182 -4.81596,1.59182 -2.3674,0 -3.97293,-0.53061 -4.81658,-1.59182 -0.84366,-1.06122 -1.26549,-2.95239 -1.26549,-5.67353 z"
         style="line-height:125%;fill:url(#linearGradient3632);font-family:Univers UltraCondensed;-inkscape-font-specification:Univers UltraCondensed;fill-opacity:1"
         id="path2852" />
    </g>
    <g
       id="g2854"
       style="font-size:40.81451796999999700px;font-style:normal;font-variant:normal;font-weight:normal;font-stretch:normal;text-align:start;line-height:125%;writing-mode:lr-tb;text-anchor:start;fill:#fff2ca;fill-opacity:1;stroke:#6d5612;font-family:Univers UltraCondensed;-inkscape-font-specification:Univers UltraCondensed;stroke-opacity:1">
      <path
         sodipodi:type="inkscape:offset"
         inkscape:radius="0.54196984"
         inkscape:original="M 317.9375 646.375 C 315.76025 646.37503 314.21013 646.90756 313.3125 647.96875 C 312.49624 648.92122 312.09375 650.47987 312.09375 652.65625 L 312.09375 655.40625 C 312.09375 657.20154 312.29692 658.492 312.71875 659.28125 C 313.14058 660.07054 313.92375 660.60265 315.09375 660.875 L 315.09375 660.9375 C 313.84237 661.29125 312.99844 661.81609 312.5625 662.46875 C 312.07258 663.23104 311.84375 664.61135 311.84375 666.625 L 311.84375 669.0625 C 311.84375 671.78364 312.25009 673.68878 313.09375 674.75 C 313.9374 675.81121 315.5701 676.34375 317.9375 676.34375 C 320.30488 676.34375 321.90674 675.81121 322.75 674.75 C 323.59323 673.68878 323.99999 671.78364 324 669.0625 L 324 666.625 C 323.99999 664.61135 323.77116 663.23104 323.28125 662.46875 C 322.84613 661.81609 322.00136 661.29125 320.75 660.9375 L 320.75 660.875 C 321.91999 660.60265 322.70316 660.07054 323.125 659.28125 C 323.54682 658.492 323.74999 657.20154 323.75 655.40625 L 323.75 652.65625 C 323.74999 650.47987 323.34749 648.92122 322.53125 647.96875 C 321.63277 646.90756 320.1139 646.37503 317.9375 646.375 z M 317.9375 649.5625 C 318.83512 649.56252 319.41513 649.88245 319.6875 650.5625 C 319.85023 650.97107 319.90624 651.75983 319.90625 652.875 L 319.90625 656.53125 C 319.90624 657.4289 319.85025 658.04785 319.6875 658.375 C 319.41513 658.97372 318.83512 659.28127 317.9375 659.28125 C 317.01246 659.28127 316.4012 658.93093 316.15625 658.25 C 315.99267 657.7875 315.93749 656.80501 315.9375 655.28125 L 315.9375 652.875 C 315.93749 651.75983 315.99266 650.97107 316.15625 650.5625 C 316.4286 649.88245 317.03986 649.56252 317.9375 649.5625 z M 317.9375 662.46875 C 318.9439 662.46876 319.57522 662.83148 319.875 663.59375 C 320.06513 664.05628 320.15624 664.90021 320.15625 666.125 L 320.15625 669.71875 C 320.15624 670.94356 320.06514 671.78749 319.875 672.25 C 319.57522 673.01146 318.9439 673.40625 317.9375 673.40625 C 316.93025 673.40625 316.26768 673.01146 315.96875 672.25 C 315.77862 671.78749 315.68749 670.94356 315.6875 669.71875 L 315.6875 666.125 C 315.68749 664.90021 315.77859 664.05628 315.96875 663.59375 C 316.26768 662.83148 316.93025 662.46876 317.9375 662.46875 z "
         style="line-height:125%;fill:none;stroke:#6d5612;stroke-opacity:1;font-family:Univers UltraCondensed;-inkscape-font-specification:Univers UltraCondensed"
         id="path2858"
         d="m 317.9375,645.84375 c -2.26562,3e-5 -3.99267,0.55342 -5.03125,1.78125 -0.94908,1.10746 -1.34375,2.78805 -1.34375,5.03125 l 0,2.75 c 0,1.83618 0.18401,3.18296 0.6875,4.125 0.31986,0.59849 0.85446,1.03571 1.5,1.375 -0.6915,0.33487 -1.27412,0.72469 -1.625,1.25 a 0.54202403,0.54202403 0 0 0 -0.0312,0.0312 c -0.6093,0.94804 -0.78125,2.38279 -0.78125,4.4375 l 0,2.4375 c 0,2.77509 0.35621,4.78905 1.34375,6.03125 1.00065,1.2587 2.83257,1.78125 5.28125,1.78125 2.44866,0 4.2537,-0.52745 5.25,-1.78125 0.98696,-1.24211 1.34374,-3.2561 1.34375,-6.03125 l 0,-2.4375 c -10e-6,-2.05471 -0.17196,-3.48946 -0.78125,-4.4375 a 0.54202403,0.54202403 0 0 0 -0.0312,-0.0312 c -0.35055,-0.5258 -0.93331,-0.91518 -1.625,-1.25 0.64553,-0.33929 1.18013,-0.77651 1.5,-1.375 0.50348,-0.94204 0.68749,-2.28882 0.6875,-4.125 l 0,-2.75 c -10e-6,-2.2432 -0.39469,-3.92379 -1.34375,-5.03125 -1.03534,-1.22283 -2.7352,-1.78122 -5,-1.78125 z m 0,4.25 c 0.38442,10e-6 0.65814,0.0824 0.84375,0.1875 0.18561,0.10515 0.30853,0.22476 0.40625,0.46875 0.0898,0.22552 0.18749,1.02797 0.1875,2.125 l 0,3.65625 c -10e-6,0.87512 -0.12409,1.46629 -0.1875,1.59375 a 0.54202403,0.54202403 0 0 0 0,0.0312 c -0.18125,0.39842 -0.47618,0.59377 -1.25,0.59375 -0.78819,2e-5 -1.11347,-0.22108 -1.28125,-0.6875 -0.0959,-0.27115 -0.18751,-1.27058 -0.1875,-2.78125 l 0,-2.40625 c -10e-6,-1.09729 0.0978,-1.90085 0.1875,-2.125 0.19011,-0.4747 0.51238,-0.65623 1.28125,-0.65625 z m 0,12.90625 c 0.43809,0 0.75442,0.0946 0.96875,0.21875 0.21433,0.12413 0.35557,0.27471 0.46875,0.5625 a 0.54202403,0.54202403 0 0 0 0,0.0312 c 0.12514,0.30443 0.24999,1.11459 0.25,2.3125 l 0,3.59375 c -10e-6,1.19794 -0.12487,2.00812 -0.25,2.3125 a 0.54202403,0.54202403 0 0 0 0,0.0312 c -0.22816,0.57954 -0.57284,0.8125 -1.4375,0.8125 -0.86563,0 -1.24608,-0.2453 -1.46875,-0.8125 a 0.54202403,0.54202403 0 0 0 0,-0.0312 c -0.12514,-0.30441 -0.25001,-1.11457 -0.25,-2.3125 l 0,-3.59375 c -10e-6,-1.19791 0.12485,-2.0081 0.25,-2.3125 a 0.54202403,0.54202403 0 0 0 0,-0.0312 c 0.11044,-0.28163 0.2764,-0.43608 0.5,-0.5625 C 317.19235,663.09233 317.49893,663 317.9375,663 z" />
    </g>
  </g>
</svg>
