<svg width="704" height="180" xmlns="http://www.w3.org/2000/svg"><path fill="#ff0004" d="M476.19 3.05c7.47-1.73 14.59-1.95 22.22-1.86 20.6-.22 41.14 9.19 56.38 22.73 37.9 33.17 29.08 39.47 27.95 54.24.22.39.27 1.27.29 2.16-5.33 12.12-5.69 28.13-.65 28.26 1.41 38.11-26.09 45.88-27.62 47.31-14.03 12.47-31.99 21.02-50.83 22.28-11.41 1.05-19.39.77-28.81-1.65-24.39-5.47-45.94-21.93-57.93-43.82-15.84-28.15-14.48-65.08 3.73-91.82 12.6-19.12 32.85-33.06 55.27-37.83z"/><path fill="#fff" stroke-linejoin="null" stroke-linecap="null" d="M591.1 72.3l73-4.7-2.1 51.5h-70.9c-14.9-10.8-16.7-36.6 0-46.8z"/><path fill="#fa0" d="M593.4 3.4c7.89-2.11 14.98-2.04 23.04-2.19 4.62-.05 10.87.69 15.42 1.62 19.47 3.99 37.56 14.64 50.35 29.87 12.53 14.84 20.23 33.84 20.77 53.32.94 18.47-4.11 37.14-14.35 52.55-13.42 20.83-36.03 35.54-60.55 39.19-8.67.45-16.18 1.54-26.05.18-17.54-2-34.29-10.05-47.27-21.95 1.53-1.43 3.33-3.1 4.83-4.56l-9.13-.03-4.95-5.52 18.36.19 4.03-5.24-26.52-.42-3.24-4.57 32.29-.13 3.422-5.6-38.942.2-2.4-4.99c13.87-.28 29.553 0 43.423-.1l2.417-5.43-47.57.04-2.08-5.15 51.46-.15 2.12-5.85c-5.04-.13-10.38-.14-15.41-.03.29-1.66.55-3.33.82-5 4.27.01 8.55.01 12.84.02 4.2 8.63 15.89 11.07 23.98 6.86.77-2.03 1.07-4.19 1.7-6.27l.42-1.94c.05 4.53 1.72 8.05 4.61 9.42 4.57 2.28 9.98.97 14.2-1.5.2.59.61 1.76.81 2.35 2.45-.04 4.91-.06 7.37-.06 1.38-7.6 2.98-15.15 4.35-22.74 1.12-4.39-2.51-8.34-6.53-9.43-5.41-1.39-11.38-1.28-16.68.5-1.64 2.17-1.9 5.02-2.75 7.53 4.58-.84 9.31-1.75 13.97-.97 1.93.24 2.09 2.25 2.28 3.95-5.52.54-10.45-.18-15.49 2.61-3.12 1.6-4.78 3.36-5.87 8-2.87 1.16-5.69 2.94-8.92 2.54-4.32-.02-8.75-2.93-9.26-7.46-.52-5.57 1.28-11.97 5.89-15.46 4.62-3.25 10.47-1.55 15.3.23.41-2.82.79-5.64 1.09-8.48-9.29-3.3-22.24-1.82-28.07 7.17l-.19-2.26c-18.57-.07-37.15.03-55.72-.09.26-1.75.53-3.51.79-5.26l54.53.35-1.45-5.75-52.91-.13 1.97-5.09 49.74-.05-2.275-5.59c-13.75.07-31.905.07-45.655.04l3.026-4.93c13.16-.24 27.144.07 40.324-.1l-3.74-5.52c-11.01-.1-22.93.18-33.94-.06l3.65-4.87 27.83-.05-4.566-5.76-20.074-.2 3.77-5.15 12.69.18c-1.9-2.15-3.83-4.27-5.94-6.21C565.64 13.79 578.94 6.84 593.4 3.4z"/><path d="M213.89 39.82c16.83-6.46 35.92-5.97 52.84-.05-1.33 8.01-2.73 16.01-4.08 24.02-9.19-4.45-19.66-6.46-29.83-5.18-4.43.62-9.43 2.32-11.51 6.64-1.27 2.84.39 6.03 2.67 7.79 8.3 6.54 19.04 8.98 27.19 15.77 6.54 5 11.51 12.73 11.13 21.22.46 10.73-5.09 21.22-13.78 27.39-11.1 7.97-25.12 10.33-38.51 10.47-10.96-.61-22.21-1.62-32.43-5.92 1-8.28 2.74-16.47 4.04-24.72 11.41 5.49 24.21 8.83 36.91 7.08 3.91-.7 8.03-2.02 10.69-5.14 2.13-2.4 2.52-6.29.59-8.91-2.87-4-7.53-6.05-11.78-8.2-9.09-4.22-18.62-9.05-24.38-17.6-5.38-7.75-4.86-18.29-.83-26.52 4.14-8.65 12.34-14.64 21.07-18.14z" fill="#004489"/><path d="M1.01 37.24c15.68.02 31.36.01 47.04-.01 3.96-.03 8.32.65 11.21 3.61 2.45 2.43 3.1 5.96 3.76 9.21 3.11 15.58 6.55 31.11 9.62 46.7-7.84-19.29-22.77-35.29-41.06-45.12-9.6-5.3-19.95-9.16-30.58-11.82 0-.64.01-1.93.01-2.57z" fill="#fa0"/><path d="M104.45 37.19c10.59-.18 21.17-.03 31.76-.08-15.36 36.35-31.23 72.48-46.64 108.81-10.58.18-21.17.04-31.76.08-8.74-31.46-17.69-62.86-26.23-94.37 18.29 9.83 33.22 25.83 41.06 45.12l.13.25c.97 4.6 1.94 9.21 2.76 13.85 9.78-24.5 19.23-49.13 28.92-73.66zM147.86 37.1c9.95 0 19.91.05 29.86-.02-6 36.33-12.3 72.61-18.5 108.91-9.99.02-19.98 0-29.97.01 6.22-36.3 12.3-72.62 18.61-108.9zM317.18 37.24c8.48-.29 16.98-.09 25.47-.08 7.99 36.36 16.17 72.68 24 109.08-9.26.03-18.52.02-27.78.01-1.17-5.4-2.44-10.78-3.52-16.19-12.62-.31-25.26-.21-37.88-.06-1.96 5.46-4.11 10.84-6.15 16.27-10.51-.04-21.01.02-31.52-.03 14.73-33.41 29.46-66.83 44.28-100.2 2-5.42 7.48-8.6 13.1-8.8z" fill="#004489"/><path d="M321.57 67.59c3.11 13.12 5.82 26.34 8.7 39.52-7.99-.02-15.98.05-23.96-.05 5.15-13.13 10.3-26.26 15.26-39.47zM414.49 112.38c2.58-13.19 4.39-26.53 7.1-39.69 4.64.1 9.27.08 13.91.01.96 7.51 1.04 15.08 1.33 22.63 3.54-7.88 6.47-15.16 10.05-22.58 4.93.04 9.87-.15 14.8.19-2.38 13.16-4.52 26.37-7.11 39.5-2.73-.05-5.46-.05-8.18-.04 1.76-9.8 3.64-19.58 5.2-29.41-4.58 9.6-8.11 19.66-12.39 29.4l-9.37.05-.24-3.37c-.34-8.75-.9-17.49-1.45-26.23l-5.21 29.61-8.44-.07zM682.29 73.45c2.76-.33 5.55-.14 8.33-.03-2.77 12.95-4.46 26.1-7.11 39.08-2.68-.02-5.56-.02-8.22.01.03-.8.49-2.41.52-3.21-2.4 2.03-5.37 4.01-8.7 3.58-7.18-.5-11.23-6.61-10.87-12.72-.77-9.11 5.81-20.2 15.87-19.83 3.4.02 5.56 2.03 8.03 3.8.74-3.57 1.34-7.03 2.15-10.68zM465.95 80.9c6.65-1.63 14.63-2.58 20.52 1.66 3.35 2.38 2.39 6.92 1.92 10.4-1.29 6.48-2.39 13.01-3.88 19.46-2.35-.03-4.71-.01-7.05.05-.04-.72-.11-2.17-.14-2.9-4.36 3.06-10.68 4.72-15.41 1.58-4.89-3.57-4.21-11.4 0-15.24 4.72-4.68 11.56-3.89 17.69-4.11.24-1.59.21-4.06-1.81-4.51-4.69-1.55-9.64.32-14.39.74.8-2.38 1.26-4.94 2.55-7.13zM498 80.27c5.08-1.22 10.63-1.09 15.75-.22l-1.24 6.86c-3.86-.08-8.36-1.73-11.73.76-1.29 1.47.03 3.58 1.47 4.27 2.99 1.6 6.91 1.92 8.91 5 2.88 5.46-.06 13.26-6.25 14.81-5.78 1.37-11.94.99-17.69-.38.38-2.33.87-4.64 1.37-6.95 4.01.95 8.27 1.91 12.37.92 1.6-.74 2.26-2.26 1.61-3.91-3.01-2.92-7.96-2.94-10.5-6.47-2.98-5.23-.32-13.4 5.93-14.69zM650.36 85c2.2-2.96 5.31-5.35 9.22-4.9-.55 2.38-1.07 4.76-1.55 7.14-2.47.54-5.26.81-7.11 2.74-1.96 1.74-2.39 4.48-2.86 6.92-.99 5.11-1.43 10.33-2.89 15.34-2.73.25-5.48.16-8.21.18 1.62-10.76 3.51-21.49 5.53-32.18 2.73.02 5.47.01 8.21-.02-.13 1.59-.24 3.18-.34 4.78z" fill="#fff"/><path d="M668.7 89.64c1.59-2.22 4.68-2.77 7.14-1.74 6.24 4.03-1.53 18.68-5.91 17.8-8.31-.19-5.19-11.62-1.23-16.06zM524.11 93.85c.04-.25.13-.77.17-1.03l5.49.12c-.21 1.63-.35 3.27-.42 4.91l-4.56.02-.68-4.02zM569.49 92.75c3.26.07 6.52.09 9.79.1-.1 1.65-.14 3.31-.1 4.97-3.52-.05-7.04-.07-10.56-.06.26-1.68.53-3.35.87-5.01z" fill="#fa0"/><path d="M468.24 100.99c2.25-3.49 6.8-3.82 10.56-3.68-.39 2.4-.68 5.14-2.71 6.78-2 2.03-6.32 2.81-7.57 1.53-.93-.9-1.49-3.28-.28-4.63z" fill="#ff0004"/><path fill="#fa0" d="M617.49 100.38c2.35-3.17 6.62-2.99 10.14-3.07-.28 2.4-.48 5.19-2.61 6.76-1.96 2.11-6.57 2.49-7.62 1.61-2.26-1.16-1.55-3.83.09-5.3z"/><path d="M568.62 97.76c3.52-.01 7.04.01 10.56.06.25 1.99.71 3.95 1.35 5.85-4.29-.01-8.57-.01-12.84-.02.31-1.96.64-3.93.93-5.89z" fill="#ff0004"/><path d="M537.43 81.6c5.48-2.84 12.99-3.14 17.94.94 4.4 4.15 3.23 10.69 2.2 15.99-6.62-.01-13.24-.1-19.86.04.84 2.46 1.94 5.15 4.49 6.29 4.78 1.71 10.05.66 14.57-1.38-.52 2.58-1.03 5.16-1.52 7.75-6.54 1.58-14.01 2.1-20.02-1.47-4.15-2.38-5.83-7.36-5.88-11.91.07-1.64.21-3.28.42-4.91 1.16-4.48 3.38-9.1 7.66-11.34z" fill="#fff"/><path d="M539.03 92.38c1.19-2.86 3.3-6.64 7.02-6.01 3.09.1 4.17 3.5 4.71 6.01-3.91.14-7.82.15-11.73 0z" fill="#ff0004"/><path d="M519.57 72.69c2.75.05 5.5.04 8.24.22-.26 1.75-.53 3.51-.79 5.26-.06.5-.2 1.51-.27 2.01 1.66.09 3.34.13 5.01.18-.39 2.15-.8 4.31-1.2 6.46-1.69-.03-3.39-.07-5.06-.11-.45 2.03-.87 4.06-1.22 6.11-.04.26-.13.78-.17 1.03-.67 3.85-2.44 10.59-1.73 11.59 1.32 1.36 4.43.23 6.66.28l-1.81 5.68c-3.22 1.36-6.95 1.34-10.29.49-2.21-.4-3.97-2.56-3.3-4.84 1.74-11.49 3.94-22.91 5.93-34.36zM563.16 80.45c2.85-.34 5.74-.18 8.61-.17-.18 1.04-.55 3.13-.74 4.17 2.67-2.94 6.19-4.7 10.17-5.01-1.1 2.85-2.16 5.71-3.06 8.63-3.49.1-7 1.38-8.65 4.68-.34 1.66-.61 3.33-.87 5.01-.29 1.96-.62 3.93-.93 5.89-.27 1.67-.53 3.34-.82 5-.22 1.2-.49 2.39-.82 3.56-2.88.29-5.77.18-8.65.19 2.1-10.61 3.51-21.37 5.76-31.95z" fill="#fff"/></svg>